# Blender 4.2.1 LTS
# www.blender.org
mtllib player_R_arm.mtl
o 立方体.002
v 0.021177 0.181101 0.214796
v -0.263735 -0.656158 0.147235
v 0.021177 0.181101 -0.214796
v -0.263735 -0.656158 -0.143942
v -0.328616 0.272837 0.214796
v -0.500455 -0.592729 0.147235
v -0.328616 0.272837 -0.214796
v -0.500455 -0.592729 -0.143942
v 0.046218 0.174534 0.000000
v -0.247807 -0.660426 0.001647
v -0.353656 0.279404 0.000000
v -0.516382 -0.588461 0.001647
v 0.046218 0.174534 0.147928
v -0.516382 -0.588461 0.101158
v -0.247807 -0.660426 0.101158
v -0.353656 0.279404 0.147928
v -0.247807 -0.660426 -0.080944
v -0.353656 0.279404 -0.122774
v 0.046218 0.174534 -0.122774
v -0.516382 -0.588461 -0.080944
v -0.153719 0.226969 -0.245548
v -0.382095 -0.624444 -0.163534
v -0.153719 0.226969 0.245548
v -0.382095 -0.624444 0.166827
v -0.382095 -0.624444 0.001647
v -0.382095 -0.624444 0.101158
v -0.382095 -0.624444 -0.080944
v -0.053751 0.200752 -0.245548
v -0.314951 -0.642435 0.166827
v -0.314951 -0.642435 -0.163534
v -0.053751 0.200752 0.245548
v -0.314951 -0.642435 0.001647
v -0.314951 -0.642435 0.101158
v -0.314951 -0.642435 -0.080944
v -0.451538 -0.605836 -0.163534
v -0.257111 0.254084 0.245548
v -0.451538 -0.605836 0.001647
v -0.451538 -0.605836 0.101158
v -0.451538 -0.605836 -0.080944
v -0.257111 0.254084 -0.245548
v -0.451538 -0.605836 0.166827
v 0.025403 0.283500 0.115086
v 0.006117 0.288557 0.166586
v -0.051590 0.303692 -0.187959
v 0.006117 0.288557 -0.164274
v -0.282569 0.364267 -0.093401
v -0.263284 0.359210 -0.164274
v -0.208213 0.344767 0.190271
v -0.263284 0.359210 0.166586
v 0.025403 0.283500 -0.093401
v 0.025403 0.283500 0.001156
v -0.282569 0.364267 0.115086
v -0.282569 0.364267 0.001156
v -0.051590 0.303692 0.001156
v -0.051590 0.303692 0.115086
v -0.051590 0.303692 -0.093401
v -0.208213 0.344767 -0.187959
v -0.128583 0.323884 -0.187959
v -0.051590 0.303692 0.190271
v -0.128583 0.323884 0.190271
v -0.208213 0.344767 0.001156
v -0.128583 0.323884 0.001156
v -0.208213 0.344767 0.115086
v -0.128583 0.323884 0.115086
v -0.208213 0.344767 -0.093401
v -0.128583 0.323884 -0.093401
v -0.709179 -1.758830 -0.359001
v -0.666821 -1.771254 -0.352103
v -0.626092 -1.783201 -0.331673
v -0.588555 -1.794211 -0.298498
v -0.555654 -1.803862 -0.253852
v -0.528653 -1.811782 -0.199450
v -0.508590 -1.817667 -0.137384
v -0.496235 -1.821291 -0.070038
v -0.492063 -1.822514 0.000000
v -0.496235 -1.821291 0.070038
v -0.508590 -1.817667 0.137384
v -0.528653 -1.811782 0.199450
v -0.555654 -1.803862 0.253852
v -0.588555 -1.794211 0.298498
v -0.626092 -1.783201 0.331673
v -0.666821 -1.771254 0.352103
v -0.709179 -1.758830 0.359001
v -0.751536 -1.746406 0.352103
v -0.792265 -1.734460 0.331673
v -0.829802 -1.723449 0.298498
v -0.862703 -1.713799 0.253852
v -0.889704 -1.705879 0.199450
v -0.909768 -1.699994 0.137384
v -0.922123 -1.696370 0.070038
v -0.926295 -1.695146 0.000000
v -0.922123 -1.696370 -0.070038
v -0.909768 -1.699994 -0.137384
v -0.889704 -1.705879 -0.199450
v -0.862703 -1.713799 -0.253852
v -0.829802 -1.723449 -0.298498
v -0.792265 -1.734460 -0.331673
v -0.751536 -1.746406 -0.352103
v -0.211026 -0.060491 0.000000
vn 0.9044 -0.3306 -0.2697
vn -0.3944 0.0031 -0.9189
vn -0.9202 0.1546 0.3598
vn 0.3306 -0.1871 0.9250
vn 0.9822 0.1876 -0.0000
vn -0.2588 -0.9659 -0.0000
vn -0.9829 0.1843 -0.0000
vn 0.9432 -0.3321 -0.0000
vn 0.8742 -0.3265 0.3594
vn 0.1265 0.4823 -0.8668
vn -0.9484 0.1662 -0.2699
vn 0.4371 0.4321 -0.7888
vn 0.1226 0.4675 0.8754
vn 0.4366 0.4185 0.7964
vn -0.1872 0.5829 0.7907
vn -0.0226 -0.0861 0.9960
vn -0.0235 -0.0896 -0.9957
vn 0.3296 -0.1904 -0.9247
vn -0.6639 0.6781 0.3152
vn 0.9401 0.2438 -0.2384
vn 0.9104 0.2687 0.3145
vn -0.7021 0.6708 -0.2389
vn -0.0226 -0.0860 0.9960
vn -0.3937 0.0064 0.9192
vn -0.1808 0.5949 -0.7832
vn -0.7666 0.6421 -0.0000
vn 0.2537 0.9673 -0.0000
vn 0.2006 0.1459 -0.9687
vn 0.4614 0.0593 -0.8852
vn 0.6598 -0.0143 -0.7513
vn 0.7958 -0.0697 -0.6015
vn 0.8841 -0.1086 -0.4546
vn 0.9391 -0.1343 -0.3163
vn 0.9710 -0.1499 -0.1862
vn 0.9857 -0.1572 -0.0615
vn 0.9857 -0.1572 0.0615
vn 0.9710 -0.1499 0.1862
vn 0.9391 -0.1343 0.3163
vn 0.8841 -0.1086 0.4546
vn 0.7958 -0.0697 0.6015
vn 0.6598 -0.0143 0.7513
vn 0.4614 0.0593 0.8852
vn 0.2006 0.1459 0.9687
vn -0.0900 0.2312 0.9687
vn -0.3563 0.2991 0.8852
vn -0.5630 0.3443 0.7513
vn -0.7074 0.3712 0.6015
vn -0.8026 0.3862 0.4546
vn -0.8629 0.3942 0.3163
vn -0.8981 0.3984 0.1862
vn -0.9144 0.4001 0.0615
vn -0.9144 0.4001 -0.0615
vn -0.8981 0.3984 -0.1862
vn -0.8629 0.3942 -0.3163
vn -0.8026 0.3862 -0.4546
vn -0.7074 0.3712 -0.6015
vn -0.5630 0.3443 -0.7513
vn -0.2815 -0.9596 -0.0000
vn -0.3563 0.2991 -0.8852
vn -0.0900 0.2312 -0.9687
vn 0.9087 -0.3326 -0.2523
vn -0.3728 -0.0042 -0.9279
vn -0.9290 0.1561 0.3356
vn 0.3082 -0.1826 0.9336
vn 0.8825 -0.3296 0.3356
vn -0.9532 0.1666 -0.2523
vn -0.0230 -0.0859 0.9960
vn -0.0240 -0.0895 -0.9957
vn 0.3072 -0.1859 -0.9333
vn -0.3720 -0.0009 0.9282
vn -0.2813 -0.9596 -0.0000
vn -0.2814 -0.9596 -0.0000
vt 0.594848 0.403059
vt 0.466712 0.431010
vt 0.583836 0.383026
vt 0.545723 0.304662
vt 0.427962 0.358469
vt 0.531128 0.288430
vt 0.475373 0.220120
vt 0.377737 0.297412
vt 0.463472 0.208931
vt 0.402422 0.145925
vt 0.312611 0.247427
vt 0.382131 0.128281
vt 0.608364 0.432395
vt 0.639846 0.457630
vt 0.619345 0.470604
vt 0.332459 0.347238
vt 0.309670 0.347922
vt 0.320744 0.332087
vt 0.346746 0.404144
vt 0.350391 0.370012
vt 0.365622 0.388773
vt 0.619094 0.396849
vt 0.630396 0.424684
vt 0.418613 0.342656
vt 0.501440 0.245613
vt 0.519611 0.270091
vt 0.486130 0.497099
vt 0.489336 0.511337
vt 0.626214 0.489822
vt 0.331468 0.385106
vt 0.565147 0.331595
vt 0.599103 0.348083
vt 0.577309 0.361185
vt 0.388359 0.306052
vt 0.608022 0.373028
vt 0.363060 0.414942
vt 0.381192 0.407557
vt 0.472393 0.448656
vt 0.399952 0.391802
vt 0.402698 0.357449
vt 0.418923 0.375002
vt 0.428006 0.166796
vt 0.465934 0.172231
vt 0.450361 0.191617
vt 0.405978 0.116505
vt 0.421762 0.132329
vt 0.368996 0.355059
vt 0.370729 0.317928
vt 0.387702 0.339917
vt 0.483128 0.191671
vt 0.384164 0.373399
vt 0.351362 0.332562
vt 0.359882 0.302559
vt 0.443791 0.150183
vt 0.364293 0.286234
vt 0.458505 0.414401
vt 0.493876 0.207736
vt 0.647398 0.473224
vt 0.552090 0.271527
vt 0.339878 0.317396
vt 0.327948 0.258297
vt 0.404490 0.326200
vt 0.568535 0.292356
vt 0.534441 0.253167
vt 0.517589 0.231170
vt 0.586331 0.319674
vt 0.436822 0.373766
vt 0.512984 0.185055
vt 0.493271 0.166869
vt 0.539206 0.212623
vt 0.558531 0.237339
vt 0.577674 0.264797
vt 0.605958 0.243458
vt 0.611472 0.195667
vt 0.632738 0.222234
vt 0.564402 0.191160
vt 0.562941 0.138427
vt 0.589909 0.169530
vt 0.585292 0.216774
vt 0.537621 0.161225
vt 0.544574 0.117872
vt 0.569973 0.107139
vt 0.589005 0.115693
vt 0.616112 0.147517
vt 0.637913 0.174094
vt 0.647398 0.199475
vt 0.518815 0.141377
vt 0.155428 0.693510
vt 0.248464 0.805913
vt 0.139091 0.711233
vt 0.126307 0.732246
vt 0.117467 0.756194
vt 0.113100 0.782507
vt 0.113762 0.810314
vt 0.119869 0.838446
vt 0.131526 0.865526
vt 0.148418 0.890130
vt 0.169780 0.910971
vt 0.194476 0.927076
vt 0.221155 0.937891
vt 0.248441 0.943286
vt 0.275113 0.943470
vt 0.300218 0.938844
vt 0.323103 0.929831
vt 0.343352 0.916756
vt 0.360638 0.899820
vt 0.374557 0.879190
vt 0.384541 0.855165
vt 0.389884 0.828331
vt 0.389884 0.799642
vt 0.384029 0.770402
vt 0.372178 0.742155
vt 0.354679 0.716503
vt 0.332386 0.694884
vt 0.306575 0.678390
vt 0.278762 0.667634
vt 0.250493 0.662741
vt 0.223141 0.663429
vt 0.197765 0.669169
vt 0.827051 0.845595
vt 0.701417 0.715653
vt 0.804522 0.542648
vt 0.175063 0.679366
vt 0.313433 0.362105
vt 0.478567 0.470556
vt 0.345821 0.272082
vt 0.447798 0.394450
vt 0.827051 0.541358
vt 0.849147 0.545938
vt 0.869961 0.556214
vt 0.888693 0.571789
vt 0.904624 0.592065
vt 0.917140 0.616263
vt 0.925761 0.643453
vt 0.930156 0.672590
vt 0.930156 0.702555
vt 0.925761 0.732196
vt 0.917140 0.760373
vt 0.904624 0.786005
vt 0.888693 0.808105
vt 0.869961 0.825825
vt 0.849147 0.838484
vt 0.804522 0.846885
vt 0.782426 0.842305
vt 0.761613 0.832029
vt 0.742881 0.816455
vt 0.726950 0.796178
vt 0.714434 0.771980
vt 0.705812 0.744790
vt 0.701417 0.685688
vt 0.705812 0.656048
vt 0.714434 0.627870
vt 0.726950 0.602239
vt 0.742881 0.580138
vt 0.761613 0.562418
vt 0.782427 0.549759
s 0
usemtl マテリアル.002
f 19/1/1 4/2/1 3/3/1
f 40/4/2 8/5/2 7/6/2
f 16/7/3 6/8/3 5/9/3
f 31/10/4 2/11/4 1/12/4
f 9/13/5 42/14/5 13/15/5
f 33/16/6 2/17/6 29/18/6
f 17/19/6 32/20/6 34/21/6
f 9/13/5 50/22/5 51/23/5
f 20/24/7 11/25/7 18/26/7
f 15/27/8 9/13/8 13/15/8
f 2/28/9 13/15/9 1/29/9
f 10/30/6 33/16/6 32/20/6
f 21/31/10 44/32/10 28/33/10
f 11/25/7 14/34/7 16/7/7
f 8/5/11 18/26/11 7/6/11
f 28/33/12 45/35/12 3/3/12
f 4/36/6 34/21/6 30/37/6
f 9/13/8 17/38/8 19/1/8
f 22/39/6 39/40/6 35/41/6
f 23/42/13 48/43/13 36/44/13
f 31/10/14 43/45/14 59/46/14
f 25/47/6 38/48/6 37/49/6
f 36/44/15 49/50/15 5/9/15
f 27/51/6 37/49/6 39/40/6
f 26/52/6 41/53/6 38/48/6
f 23/42/13 59/46/13 60/54/13
f 41/55/16 23/42/16 36/44/16
f 30/56/17 21/31/17 28/33/17
f 4/2/18 28/33/18 3/3/18
f 16/7/19 49/50/19 52/57/19
f 19/1/20 45/35/20 50/22/20
f 13/15/21 43/58/21 1/29/21
f 18/26/22 47/59/22 7/6/22
f 30/37/6 27/51/6 22/39/6
f 32/20/6 26/52/6 25/47/6
f 34/21/6 25/47/6 27/51/6
f 33/16/6 24/60/6 26/52/6
f 23/42/23 29/61/23 31/10/23
f 6/8/24 36/44/24 5/9/24
f 38/48/6 6/8/6 14/34/6
f 39/40/6 12/62/6 20/24/6
f 37/49/6 14/34/6 12/62/6
f 8/5/6 39/40/6 20/24/6
f 40/4/25 47/59/25 57/63/25
f 11/25/26 46/64/26 18/26/26
f 11/25/26 52/57/26 53/65/26
f 21/31/10 57/63/10 58/66/10
f 21/31/17 35/67/17 40/4/17
f 63/68/27 49/50/27 48/69/27
f 46/64/27 61/70/27 65/71/27
f 53/65/27 63/68/27 61/70/27
f 47/59/27 65/71/27 57/72/27
f 58/73/27 56/74/27 44/75/27
f 62/76/27 55/77/27 54/78/27
f 66/79/27 54/78/27 56/74/27
f 64/80/27 59/81/27 55/77/27
f 55/77/27 43/82/27 42/83/27
f 56/74/27 51/84/27 50/85/27
f 54/78/27 42/83/27 51/84/27
f 45/86/27 56/74/27 50/85/27
f 57/72/27 66/79/27 58/73/27
f 61/70/27 64/80/27 62/76/27
f 65/71/27 62/76/27 66/79/27
f 63/68/27 60/87/27 64/80/27
f 67/88/28 99/89/28 68/90/28
f 68/90/29 99/89/29 69/91/29
f 69/91/30 99/89/30 70/92/30
f 70/92/31 99/89/31 71/93/31
f 71/93/32 99/89/32 72/94/32
f 72/94/33 99/89/33 73/95/33
f 73/95/34 99/89/34 74/96/34
f 74/96/35 99/89/35 75/97/35
f 75/97/36 99/89/36 76/98/36
f 76/98/37 99/89/37 77/99/37
f 77/99/38 99/89/38 78/100/38
f 78/100/39 99/89/39 79/101/39
f 79/101/40 99/89/40 80/102/40
f 80/102/41 99/89/41 81/103/41
f 81/103/42 99/89/42 82/104/42
f 82/104/43 99/89/43 83/105/43
f 83/105/44 99/89/44 84/106/44
f 84/106/45 99/89/45 85/107/45
f 85/107/46 99/89/46 86/108/46
f 86/108/47 99/89/47 87/109/47
f 87/109/48 99/89/48 88/110/48
f 88/110/49 99/89/49 89/111/49
f 89/111/50 99/89/50 90/112/50
f 90/112/51 99/89/51 91/113/51
f 91/113/52 99/89/52 92/114/52
f 92/114/53 99/89/53 93/115/53
f 93/115/54 99/89/54 94/116/54
f 94/116/55 99/89/55 95/117/55
f 95/117/56 99/89/56 96/118/56
f 96/118/57 99/89/57 97/119/57
f 82/120/58 90/121/58 98/122/58
f 97/119/59 99/89/59 98/123/59
f 98/123/60 99/89/60 67/88/60
f 19/1/61 17/38/61 4/2/61
f 40/4/62 35/67/62 8/5/62
f 16/7/63 14/34/63 6/8/63
f 31/10/64 29/61/64 2/11/64
f 9/13/5 51/23/5 42/14/5
f 33/16/6 15/124/6 2/17/6
f 17/19/6 10/30/6 32/20/6
f 9/13/5 19/1/5 50/22/5
f 20/24/7 12/62/7 11/25/7
f 15/27/8 10/125/8 9/13/8
f 2/28/65 15/27/65 13/15/65
f 10/30/6 15/124/6 33/16/6
f 21/31/10 58/66/10 44/32/10
f 11/25/7 12/62/7 14/34/7
f 8/5/66 20/24/66 18/26/66
f 28/33/12 44/32/12 45/35/12
f 4/36/6 17/19/6 34/21/6
f 9/13/8 10/125/8 17/38/8
f 22/39/6 27/51/6 39/40/6
f 23/42/13 60/54/13 48/43/13
f 31/10/14 1/12/14 43/45/14
f 25/47/6 26/52/6 38/48/6
f 36/44/15 48/43/15 49/50/15
f 27/51/6 25/47/6 37/49/6
f 26/52/6 24/60/6 41/53/6
f 23/42/13 31/10/13 59/46/13
f 41/55/67 24/126/67 23/42/67
f 30/56/68 22/127/68 21/31/68
f 4/2/69 30/56/69 28/33/69
f 16/7/19 5/9/19 49/50/19
f 19/1/20 3/3/20 45/35/20
f 13/15/21 42/14/21 43/58/21
f 18/26/22 46/64/22 47/59/22
f 30/37/6 34/21/6 27/51/6
f 32/20/6 33/16/6 26/52/6
f 34/21/6 32/20/6 25/47/6
f 33/16/6 29/18/6 24/60/6
f 23/42/67 24/126/67 29/61/67
f 6/8/70 41/55/70 36/44/70
f 38/48/6 41/53/6 6/8/6
f 39/40/6 37/49/6 12/62/6
f 37/49/6 38/48/6 14/34/6
f 8/5/6 35/41/6 39/40/6
f 40/4/25 7/6/25 47/59/25
f 11/25/26 53/65/26 46/64/26
f 11/25/26 16/7/26 52/57/26
f 21/31/10 40/4/10 57/63/10
f 21/31/68 22/127/68 35/67/68
f 63/68/27 52/57/27 49/50/27
f 46/64/27 53/65/27 61/70/27
f 53/65/27 52/57/27 63/68/27
f 47/59/27 46/64/27 65/71/27
f 58/73/27 66/79/27 56/74/27
f 62/76/27 64/80/27 55/77/27
f 66/79/27 62/76/27 54/78/27
f 64/80/27 60/87/27 59/81/27
f 55/77/27 59/81/27 43/82/27
f 56/74/27 54/78/27 51/84/27
f 54/78/27 55/77/27 42/83/27
f 45/86/27 44/75/27 56/74/27
f 57/72/27 65/71/27 66/79/27
f 61/70/27 63/68/27 64/80/27
f 65/71/27 61/70/27 62/76/27
f 63/68/27 48/69/27 60/87/27
f 98/122/58 67/128/58 68/129/58
f 68/129/58 69/130/58 70/131/58
f 70/131/58 71/132/58 72/133/58
f 72/133/71 73/134/71 74/135/71
f 74/135/72 75/136/72 76/137/72
f 76/137/71 77/138/71 78/139/71
f 78/139/58 79/140/58 80/141/58
f 80/141/58 81/142/58 82/120/58
f 82/120/58 83/143/58 84/144/58
f 84/144/72 85/145/72 86/146/72
f 86/146/58 87/147/58 88/148/58
f 88/148/58 89/149/58 90/121/58
f 90/121/58 91/150/58 92/151/58
f 92/151/58 93/152/58 94/153/58
f 94/153/58 95/154/58 96/155/58
f 96/155/72 97/156/72 98/122/72
f 98/122/58 68/129/58 70/131/58
f 70/131/58 72/133/58 74/135/58
f 74/135/58 76/137/58 78/139/58
f 78/139/58 80/141/58 82/120/58
f 82/120/58 84/144/58 86/146/58
f 86/146/58 88/148/58 90/121/58
f 90/121/58 92/151/58 94/153/58
f 94/153/58 96/155/58 98/122/58
f 98/122/58 70/131/58 74/135/58
f 74/135/58 78/139/58 82/120/58
f 82/120/58 86/146/58 90/121/58
f 90/121/58 94/153/58 98/122/58
f 98/122/58 74/135/58 82/120/58
