# Blender 4.2.1 LTS
# www.blender.org
mtllib moveRange.mtl
o 円
v 0.000000 0.000000 -30.000000
v -5.852710 0.000000 -29.423557
v -11.480504 0.000000 -27.716385
v -16.667107 0.000000 -24.944088
v -21.213203 0.000000 -21.213203
v -24.944088 0.000000 -16.667107
v -27.716385 0.000000 -11.480504
v -29.423557 0.000000 -5.852710
v -30.000000 0.000000 0.000000
v -29.423557 0.000000 5.852710
v -27.716385 0.000000 11.480504
v -24.944088 0.000000 16.667107
v -21.213203 0.000000 21.213203
v -16.667107 0.000000 24.944088
v -11.480504 0.000000 27.716385
v -5.852710 0.000000 29.423557
v 0.000000 0.000000 30.000000
v 5.852710 0.000000 29.423557
v 11.480504 0.000000 27.716385
v 16.667107 0.000000 24.944088
v 21.213203 0.000000 21.213203
v 24.944088 0.000000 16.667107
v 27.716385 0.000000 11.480504
v 29.423557 0.000000 5.852710
v 30.000000 0.000000 0.000000
v 29.423557 0.000000 -5.852710
v 27.716385 0.000000 -11.480504
v 24.944088 0.000000 -16.667107
v 21.213203 0.000000 -21.213203
v 16.667107 0.000000 -24.944088
v 11.480504 0.000000 -27.716385
v 5.852710 0.000000 -29.423557
vn -0.0000 1.0000 -0.0000
vt 0.234080 0.576673
s 0
usemtl マテリアル.001
f 17/1/1 25/1/1 1/1/1
f 1/1/1 2/1/1 3/1/1
f 3/1/1 4/1/1 5/1/1
f 5/1/1 6/1/1 7/1/1
f 7/1/1 8/1/1 9/1/1
f 9/1/1 10/1/1 11/1/1
f 11/1/1 12/1/1 13/1/1
f 13/1/1 14/1/1 15/1/1
f 15/1/1 16/1/1 17/1/1
f 17/1/1 18/1/1 19/1/1
f 19/1/1 20/1/1 21/1/1
f 21/1/1 22/1/1 23/1/1
f 23/1/1 24/1/1 25/1/1
f 25/1/1 26/1/1 27/1/1
f 27/1/1 28/1/1 29/1/1
f 29/1/1 30/1/1 31/1/1
f 31/1/1 32/1/1 1/1/1
f 1/1/1 3/1/1 5/1/1
f 5/1/1 7/1/1 9/1/1
f 9/1/1 11/1/1 13/1/1
f 13/1/1 15/1/1 17/1/1
f 17/1/1 19/1/1 21/1/1
f 21/1/1 23/1/1 25/1/1
f 25/1/1 27/1/1 29/1/1
f 29/1/1 31/1/1 1/1/1
f 1/1/1 5/1/1 9/1/1
f 9/1/1 13/1/1 17/1/1
f 17/1/1 21/1/1 25/1/1
f 25/1/1 29/1/1 1/1/1
f 1/1/1 9/1/1 17/1/1
