# Blender 4.2.1 LTS
# www.blender.org
mtllib enemyStation.mtl
o 立方体
v -2.107049 0.202899 2.107049
v -2.107049 4.416997 2.107049
v -2.107049 0.202899 -2.107049
v -2.107049 4.416997 -2.107049
v 2.107049 0.202899 2.107049
v 2.107049 4.416997 2.107049
v 2.107049 0.202899 -2.107049
v 2.107049 4.416997 -2.107049
v 0.000000 0.202899 -2.107049
v 0.000000 4.416997 -2.107049
v 0.000000 0.202899 2.107049
v 0.000000 4.416997 2.107049
v 1.052747 4.416997 -2.107049
v 1.052747 0.202899 2.107049
v 1.052747 0.202899 -2.107049
v 1.052747 4.416997 2.107049
v -1.053525 0.202899 -2.107049
v -1.053525 4.416997 2.107049
v -1.053525 4.416997 -2.107049
v -1.053525 0.202899 2.107049
v -2.107049 0.202899 0.000000
v -2.107049 4.416997 0.000000
v 2.107049 0.202899 0.000000
v 2.107049 4.416997 0.000000
v -1.053525 2.309948 -2.107049
v 0.000000 0.202899 0.000000
v 1.052747 2.309948 -2.107049
v 1.052747 0.202899 0.000000
v -1.053525 0.202899 0.000000
v 1.052747 2.309948 2.107049
v -2.107049 0.202899 1.053525
v 2.107049 4.416997 1.053525
v 0.000000 2.309948 -2.107049
v 0.000000 0.202899 1.053525
v 0.000000 2.309948 2.107049
v 1.052747 0.202899 1.053525
v -1.053525 0.202899 1.053525
v 2.107049 2.309948 2.107049
v -2.107049 4.416997 1.053525
v 2.107049 0.202899 1.053525
v -2.107049 4.416997 -1.053525
v 2.107049 0.202899 -1.053525
v -2.107049 0.202899 -1.053525
v 2.107049 4.416997 -1.053525
v 2.107049 2.309948 -2.107049
v 0.000000 0.202899 -1.053525
v -2.107049 2.309948 -2.107049
v 1.052747 0.202899 -1.053525
v -1.053525 0.202899 -1.053525
v -2.107049 2.309948 2.107049
v -1.118745 5.156441 -0.559336
v -1.118745 5.156441 -1.118672
v 0.558850 5.156441 -1.118672
v 1.118599 5.156441 -1.118672
v 1.118599 5.156441 0.559336
v 1.118599 5.156441 1.118672
v -0.559409 5.156441 1.118672
v -1.118745 5.156441 1.118672
v -0.559409 5.156441 -1.118672
v -0.000073 5.156441 -1.118672
v 0.558850 5.156441 1.118672
v -0.000073 5.156441 1.118672
v -0.000073 5.156441 0.559336
v 0.558850 5.156441 0.559336
v -0.559409 5.156441 0.559336
v -1.118745 5.156441 0.559336
v -1.118745 5.156441 0.000000
v 1.118599 5.156441 -0.559336
v 1.118599 5.156441 0.000000
v -0.000073 5.156441 -0.559336
v -0.000073 5.156441 0.000000
v 0.558850 5.156441 -0.559336
v 0.558850 5.156441 0.000000
v -0.559409 5.156441 -0.559336
v -0.559409 5.156441 0.000000
v -1.053525 2.309948 2.107049
v 2.107049 2.309948 0.000000
v -2.107049 2.309948 0.000000
v -2.107049 2.309948 1.053525
v 2.107049 2.309948 1.053525
v 2.107049 2.309948 -1.053525
v -2.107049 2.309948 -1.053525
v -2.815411 0.202899 1.053525
v -2.815411 0.202899 2.107049
v -2.815411 2.309948 -2.107049
v -2.815411 0.202899 -2.107049
v -2.815411 0.202899 -1.053525
v -2.815411 0.202899 0.000000
v -2.815411 2.309948 2.107049
v -2.815411 2.309948 0.000000
v -2.815411 2.309948 1.053525
v -2.815411 2.309948 -1.053525
v 2.107049 2.309948 -2.107049
v 2.107049 0.202899 -2.107049
v 2.107049 0.202899 -1.053525
v 2.107049 2.309948 2.107049
v 2.107049 0.202899 2.107049
v 2.107049 0.202899 1.053525
v 2.107049 0.202899 0.000000
v 2.107049 2.309948 0.000000
v 2.107049 2.309948 1.053525
v 2.107049 2.309948 -1.053525
v -2.815411 0.202899 1.053525
v -2.815411 0.202899 2.107049
v -2.815411 2.309948 -2.107049
v -2.815411 0.202899 -2.107049
v -2.815411 0.202899 -1.053525
v -2.815411 0.202899 0.000000
v -2.815411 2.309948 2.107049
v -2.815411 2.309948 0.000000
v -2.815411 2.309948 1.053525
v -2.815411 2.309948 -1.053525
v 2.919169 2.309948 -2.107049
v 2.919169 0.202899 -2.107049
v 2.919169 0.202899 -1.053525
v 2.919169 2.309948 2.107049
v 2.919169 0.202899 2.107049
v 2.919169 0.202899 1.053525
v 2.919169 0.202899 0.000000
v 2.919169 2.309948 0.000000
v 2.919169 2.309948 1.053525
v 2.919169 2.309948 -1.053525
v -0.000000 5.005943 -2.881314
v 0.562117 5.005943 -2.825951
v 1.102631 5.005943 -2.661987
v 1.600773 5.005943 -2.395725
v 2.037397 5.005943 -2.037397
v 2.395725 5.005943 -1.600773
v 2.661987 5.005943 -1.102631
v 2.825951 5.005943 -0.562117
v 2.881314 5.005943 0.000000
v 2.825951 5.005943 0.562117
v 2.661987 5.005943 1.102631
v 2.395725 5.005943 1.600773
v 2.037397 5.005943 2.037397
v 1.600773 5.005943 2.395725
v 1.102631 5.005943 2.661987
v 0.562117 5.005943 2.825951
v -0.000000 5.005943 2.881314
v -0.562117 5.005943 2.825951
v -1.102631 5.005943 2.661987
v -1.600773 5.005943 2.395725
v -2.037397 5.005943 2.037397
v -2.395725 5.005943 1.600773
v -2.661987 5.005943 1.102631
v -2.825951 5.005943 0.562117
v -2.881314 5.005943 0.000000
v -2.825951 5.005943 -0.562117
v -2.661987 5.005943 -1.102631
v -2.395725 5.005943 -1.600773
v -2.037397 5.005943 -2.037397
v -1.600773 5.005943 -2.395725
v -1.102631 5.005943 -2.661987
v -0.562117 5.005943 -2.825951
v -0.000000 7.508053 0.000000
vn -1.0000 -0.0000 -0.0000
vn -0.0000 -0.0000 -1.0000
vn 1.0000 -0.0000 -0.0000
vn -0.0000 -0.0000 1.0000
vn -0.0000 -1.0000 -0.0000
vn -0.0000 0.8007 0.5990
vn -0.0000 0.8007 -0.5990
vn 0.5990 0.8007 -0.0000
vn -0.5991 0.8007 -0.0000
vn -0.0000 1.0000 -0.0000
vn 0.0644 0.7535 -0.6543
vn 0.1909 0.7535 -0.6292
vn 0.3099 0.7535 -0.5798
vn 0.4171 0.7535 -0.5082
vn 0.5082 0.7535 -0.4171
vn 0.5798 0.7535 -0.3099
vn 0.6292 0.7535 -0.1909
vn 0.6543 0.7535 -0.0644
vn 0.6543 0.7535 0.0644
vn 0.6292 0.7535 0.1909
vn 0.5798 0.7535 0.3099
vn 0.5082 0.7535 0.4171
vn 0.4171 0.7535 0.5082
vn 0.3099 0.7535 0.5798
vn 0.1909 0.7535 0.6292
vn 0.0644 0.7535 0.6543
vn -0.0644 0.7535 0.6543
vn -0.1909 0.7535 0.6292
vn -0.3099 0.7535 0.5798
vn -0.4171 0.7535 0.5082
vn -0.5082 0.7535 0.4171
vn -0.5798 0.7535 0.3099
vn -0.6292 0.7535 0.1909
vn -0.6543 0.7535 0.0644
vn -0.6543 0.7535 -0.0644
vn -0.6292 0.7535 -0.1909
vn -0.5798 0.7535 -0.3099
vn -0.5082 0.7535 -0.4171
vn -0.4171 0.7535 -0.5082
vn -0.3099 0.7535 -0.5798
vn -0.1909 0.7535 -0.6292
vn -0.0644 0.7535 -0.6543
vt 0.254216 0.145036
vt 0.181064 0.221710
vt 0.169882 0.168100
vt 0.342587 0.268594
vt 0.309910 0.360136
vt 0.280185 0.328268
vt 0.465859 0.352766
vt 0.451368 0.449179
vt 0.423415 0.409519
vt 0.623422 0.396290
vt 0.640884 0.515881
vt 0.591024 0.497669
vt 0.362410 0.524798
vt 0.407442 0.601870
vt 0.338052 0.577023
vt 0.572200 0.384264
vt 0.613121 0.323655
vt 0.316238 0.233819
vt 0.341604 0.167147
vt 0.364624 0.189469
vt 0.303462 0.636498
vt 0.325330 0.744276
vt 0.260286 0.697642
vt 0.525767 0.378018
vt 0.543022 0.480933
vt 0.497684 0.465299
vt 0.285259 0.203228
vt 0.248936 0.296206
vt 0.216426 0.262647
vt 0.489983 0.377456
vt 0.431552 0.325748
vt 0.490963 0.290252
vt 0.371015 0.676105
vt 0.257658 0.181325
vt 0.275978 0.809166
vt 0.212033 0.758680
vt 0.387295 0.213932
vt 0.404597 0.243356
vt 0.360123 0.297864
vt 0.144935 0.602807
vt 0.152503 0.709689
vt 0.094476 0.659596
vt 0.238843 0.503453
vt 0.245243 0.595502
vt 0.193362 0.549942
vt 0.393657 0.306839
vt 0.436126 0.256242
vt 0.200712 0.651307
vt 0.238123 0.050376
vt 0.298519 0.033651
vt 0.304922 0.061882
vt 0.643510 0.331648
vt 0.676466 0.411847
vt 0.280592 0.470541
vt 0.283907 0.544691
vt 0.391881 0.386091
vt 0.356588 0.367477
vt 0.156759 0.122649
vt 0.142159 0.077573
vt 0.225388 0.000136
vt 0.127085 0.029908
vt 0.464170 0.272418
vt 0.315217 0.149887
vt 0.248181 0.099140
vt 0.314307 0.119937
vt 0.516633 0.312368
vt 0.549850 0.312346
vt 0.316717 0.503525
vt 0.259980 0.418952
vt 0.200736 0.452745
vt 0.145287 0.498770
vt 0.091437 0.550824
vt 0.582135 0.317660
vt 0.037581 0.605839
vt 0.309874 0.090472
vt 0.569762 0.174461
vt 0.579625 0.224768
vt 0.549723 0.204636
vt 0.529917 0.234423
vt 0.538576 0.284001
vt 0.510325 0.263311
vt 0.559303 0.254644
vt 0.488874 0.165422
vt 0.500279 0.214978
vt 0.469917 0.196234
vt 0.452052 0.226720
vt 0.481714 0.244334
vt 0.508427 0.134433
vt 0.519560 0.184850
vt 0.539339 0.154326
vt 0.477116 0.114806
vt 0.457569 0.146139
vt 0.438432 0.177748
vt 0.420310 0.209963
vt 0.095003 0.040481
vt 0.260059 0.418966
vt 0.280640 0.470508
vt 0.061509 0.700403
vt 0.120164 0.752420
vt 0.061450 0.700469
vt 0.177961 0.802435
vt 0.000204 0.644336
vt 0.126397 0.133308
vt 0.140039 0.175502
vt 0.126345 0.133325
vt 0.551599 0.593063
vt 0.503876 0.571420
vt 0.152742 0.330878
vt 0.119496 0.301002
vt 0.224520 0.392699
vt 0.188545 0.363027
vt 0.458775 0.548046
vt 0.418656 0.522190
vt 0.600479 0.613642
vt 0.309943 0.360207
vt 0.146837 0.218030
vt 0.362422 0.524734
vt 0.418599 0.522117
vt 0.093459 0.276090
vt 0.146776 0.218008
vt 0.423381 0.409552
vt 0.391855 0.386131
vt 0.238677 0.854708
vt 0.177910 0.802494
vt 0.633345 0.627226
vt 0.120220 0.752356
vt 0.111452 0.089271
vt 0.140090 0.175489
vt 0.451293 0.449183
vt 0.402001 0.432058
vt 0.399139 0.493169
vt 0.309343 0.448161
vt 0.347044 0.396907
vt 0.356572 0.367527
vt 0.058020 0.224165
vt 0.034019 0.170724
vt 0.094944 0.040500
vt 0.015368 0.118368
vt 0.000136 0.070964
vt 0.111401 0.089288
vt 0.673848 0.529505
vt 0.633443 0.627266
vt 0.316750 0.503474
vt 0.000136 0.644410
vt 0.321527 0.388200
vt 0.292357 0.417521
vt 0.375877 0.412466
vt 0.369508 0.488180
vt 0.336576 0.472260
vt 0.422637 0.456921
vt 0.920732 0.591258
vt 0.838301 0.635318
vt 0.910553 0.576023
vt 0.897596 0.563067
vt 0.882362 0.552887
vt 0.865434 0.545875
vt 0.847463 0.542301
vt 0.829140 0.542301
vt 0.811169 0.545875
vt 0.794241 0.552887
vt 0.779006 0.563067
vt 0.766050 0.576023
vt 0.755871 0.591258
vt 0.748859 0.608186
vt 0.745284 0.626156
vt 0.745284 0.644479
vt 0.748859 0.662450
vt 0.755871 0.679378
vt 0.766050 0.694613
vt 0.779006 0.707569
vt 0.794241 0.717749
vt 0.811169 0.724760
vt 0.829140 0.728335
vt 0.847463 0.728335
vt 0.865433 0.724760
vt 0.882362 0.717749
vt 0.897596 0.707569
vt 0.910553 0.694613
vt 0.920732 0.679378
vt 0.927744 0.662450
vt 0.931319 0.644479
vt 0.931319 0.626157
vt 0.903665 0.785682
vt 0.849577 0.886872
vt 0.748387 0.832785
vt 0.927744 0.608186
vt 0.599847 0.194683
vt 0.238729 0.854647
vt 0.093559 0.276181
vt 0.673750 0.529464
vt 0.745284 0.817186
vt 0.745284 0.801281
vt 0.748387 0.785682
vt 0.754474 0.770988
vt 0.763310 0.757764
vt 0.774556 0.746518
vt 0.787780 0.737681
vt 0.802474 0.731595
vt 0.818074 0.728492
vt 0.833978 0.728492
vt 0.849577 0.731595
vt 0.864271 0.737681
vt 0.877496 0.746518
vt 0.888742 0.757764
vt 0.897578 0.770988
vt 0.906768 0.801281
vt 0.906768 0.817186
vt 0.903665 0.832785
vt 0.897578 0.847479
vt 0.888742 0.860703
vt 0.877496 0.871950
vt 0.864271 0.880786
vt 0.833978 0.889975
vt 0.818074 0.889975
vt 0.802475 0.886872
vt 0.787780 0.880786
vt 0.774556 0.871950
vt 0.763310 0.860703
vt 0.754474 0.847479
s 0
usemtl マテリアル.002
f 41/1/1 47/2/1 82/3/1
f 13/4/2 45/5/2 27/6/2
f 32/7/3 38/8/3 80/9/3
f 18/10/4 50/11/4 76/12/4
f 40/13/5 14/14/5 36/15/5
f 12/16/6 57/17/6 18/10/6
f 10/18/7 59/19/7 60/20/7
f 34/21/5 20/22/5 37/23/5
f 16/24/4 35/25/4 30/26/4
f 19/27/2 33/28/2 25/29/2
f 6/30/4 30/26/4 38/8/4
f 24/31/8 55/32/8 32/7/8
f 36/15/5 11/33/5 34/21/5
f 10/18/2 27/6/2 33/28/2
f 4/34/2 25/29/2 47/2/2
f 37/23/5 1/35/5 31/36/5
f 10/18/7 53/37/7 13/4/7
f 12/16/4 76/12/4 35/25/4
f 13/4/7 54/38/7 8/39/7
f 49/40/5 21/41/5 43/42/5
f 48/43/5 26/44/5 46/45/5
f 44/46/8 54/38/8 68/47/8
f 46/45/5 29/48/5 49/40/5
f 39/49/9 58/50/9 66/51/9
f 18/10/6 58/52/6 2/53/6
f 42/54/5 28/55/5 48/43/5
f 44/46/3 77/56/3 81/57/3
f 39/49/1 78/58/1 79/59/1
f 2/60/1 79/59/1 50/61/1
f 24/31/8 68/47/8 69/62/8
f 29/48/5 31/36/5 21/41/5
f 28/55/5 34/21/5 26/44/5
f 41/1/9 52/63/9 4/34/9
f 26/44/5 37/23/5 29/48/5
f 22/64/9 51/65/9 41/1/9
f 16/24/6 56/66/6 61/67/6
f 23/68/5 36/15/5 28/55/5
f 24/31/3 80/9/3 77/56/3
f 8/39/3 81/57/3 45/5/3
f 7/69/5 48/43/5 15/70/5
f 32/7/8 56/66/8 6/30/8
f 19/27/7 52/63/7 59/19/7
f 9/71/5 49/40/5 17/72/5
f 12/16/6 61/67/6 62/73/6
f 15/70/5 46/45/5 9/71/5
f 17/72/5 43/42/5 3/74/5
f 22/64/9 66/51/9 67/75/9
f 22/64/1 82/3/1 78/58/1
f 66/76/10 57/77/10 65/78/10
f 63/79/10 61/80/10 64/81/10
f 64/81/10 56/66/10 55/32/10
f 65/78/10 62/82/10 63/79/10
f 74/83/10 71/84/10 70/85/10
f 72/86/10 69/62/10 68/47/10
f 70/85/10 73/87/10 72/86/10
f 51/88/10 75/89/10 74/83/10
f 75/89/10 63/79/10 71/84/10
f 73/87/10 55/32/10 69/62/10
f 71/84/10 64/81/10 73/87/10
f 67/90/10 65/78/10 75/89/10
f 52/91/10 74/83/10 59/92/10
f 60/93/10 72/86/10 53/94/10
f 53/94/10 68/47/10 54/38/10
f 59/92/10 70/85/10 60/93/10
f 79/59/10 89/95/10 50/61/10
f 42/54/10 94/96/10 95/97/10
f 87/98/10 108/99/10 107/100/10
f 1/35/5 83/101/5 31/36/5
f 43/42/5 86/102/5 3/74/5
f 90/103/10 112/104/10 110/105/10
f 35/25/4 20/106/4 11/107/4
f 47/2/2 17/108/2 3/109/2
f 33/28/2 15/110/2 9/111/2
f 38/8/4 14/112/4 5/113/4
f 25/29/2 9/111/2 17/108/2
f 30/26/4 11/107/4 14/112/4
f 76/12/4 1/114/4 20/106/4
f 7/69/10 93/115/10 94/96/10
f 27/6/2 7/69/2 15/110/2
f 3/109/2 85/116/2 47/2/2
f 5/113/10 98/117/10 97/118/10
f 85/116/10 106/119/10 105/120/10
f 77/56/10 101/121/10 100/122/10
f 83/101/10 104/123/10 103/124/10
f 82/3/10 90/103/10 78/58/10
f 50/11/4 84/125/4 1/114/4
f 31/36/5 88/126/5 21/41/5
f 78/58/10 91/127/10 79/59/10
f 21/41/5 87/98/5 43/42/5
f 47/2/10 92/128/10 82/3/10
f 96/129/10 121/130/10 101/121/10
f 98/117/5 117/131/5 97/118/5
f 94/96/5 115/132/5 95/97/5
f 100/122/10 122/133/10 102/134/10
f 110/105/1 107/135/1 108/136/1
f 109/137/1 103/138/1 104/139/1
f 111/140/1 108/136/1 103/138/1
f 112/104/1 106/119/1 107/135/1
f 89/95/10 111/140/10 109/137/10
f 84/125/10 109/141/10 104/142/10
f 91/127/10 110/105/10 111/140/10
f 81/57/10 100/122/10 102/134/10
f 40/13/10 99/143/10 98/117/10
f 38/8/10 97/118/10 96/129/10
f 80/9/10 96/129/10 101/121/10
f 92/128/10 105/120/10 112/104/10
f 88/126/10 103/124/10 108/99/10
f 23/68/10 95/97/10 99/143/10
f 86/102/10 107/100/10 106/144/10
f 45/5/10 102/134/10 93/115/10
f 113/145/3 115/132/3 114/146/3
f 120/147/3 118/148/3 119/149/3
f 122/133/3 119/149/3 115/132/3
f 121/130/3 117/131/3 118/148/3
f 97/118/4 116/150/4 96/129/4
f 102/134/10 113/145/10 93/115/10
f 99/143/5 118/148/5 98/117/5
f 101/121/10 120/147/10 100/122/10
f 93/115/2 114/146/2 94/96/2
f 95/97/5 119/149/5 99/143/5
f 123/151/11 155/152/11 124/153/11
f 124/153/12 155/152/12 125/154/12
f 125/154/13 155/152/13 126/155/13
f 126/155/14 155/152/14 127/156/14
f 127/156/15 155/152/15 128/157/15
f 128/157/16 155/152/16 129/158/16
f 129/158/17 155/152/17 130/159/17
f 130/159/18 155/152/18 131/160/18
f 131/160/19 155/152/19 132/161/19
f 132/161/20 155/152/20 133/162/20
f 133/162/21 155/152/21 134/163/21
f 134/163/22 155/152/22 135/164/22
f 135/164/23 155/152/23 136/165/23
f 136/165/24 155/152/24 137/166/24
f 137/166/25 155/152/25 138/167/25
f 138/167/26 155/152/26 139/168/26
f 139/168/27 155/152/27 140/169/27
f 140/169/28 155/152/28 141/170/28
f 141/170/29 155/152/29 142/171/29
f 142/171/30 155/152/30 143/172/30
f 143/172/31 155/152/31 144/173/31
f 144/173/32 155/152/32 145/174/32
f 145/174/33 155/152/33 146/175/33
f 146/175/34 155/152/34 147/176/34
f 147/176/35 155/152/35 148/177/35
f 148/177/36 155/152/36 149/178/36
f 149/178/37 155/152/37 150/179/37
f 150/179/38 155/152/38 151/180/38
f 151/180/39 155/152/39 152/181/39
f 152/181/40 155/152/40 153/182/40
f 138/183/5 146/184/5 154/185/5
f 153/182/41 155/152/41 154/186/41
f 154/186/42 155/152/42 123/151/42
f 41/1/1 4/34/1 47/2/1
f 13/4/2 8/39/2 45/5/2
f 32/7/3 6/30/3 38/8/3
f 18/10/4 2/53/4 50/11/4
f 40/13/5 5/113/5 14/14/5
f 12/16/6 62/73/6 57/17/6
f 10/18/7 19/27/7 59/19/7
f 34/21/5 11/33/5 20/22/5
f 16/24/4 12/16/4 35/25/4
f 19/27/2 10/18/2 33/28/2
f 6/30/4 16/24/4 30/26/4
f 24/31/8 69/62/8 55/32/8
f 36/15/5 14/14/5 11/33/5
f 10/18/2 13/4/2 27/6/2
f 4/34/2 19/27/2 25/29/2
f 37/23/5 20/22/5 1/35/5
f 10/18/7 60/20/7 53/37/7
f 12/16/4 18/10/4 76/12/4
f 13/4/7 53/37/7 54/38/7
f 49/40/5 29/48/5 21/41/5
f 48/43/5 28/55/5 26/44/5
f 44/46/8 8/39/8 54/38/8
f 46/45/5 26/44/5 29/48/5
f 39/49/9 2/60/9 58/50/9
f 18/10/6 57/17/6 58/52/6
f 42/54/5 23/68/5 28/55/5
f 44/46/3 24/31/3 77/56/3
f 39/49/1 22/64/1 78/58/1
f 2/60/1 39/49/1 79/59/1
f 24/31/8 44/46/8 68/47/8
f 29/48/5 37/23/5 31/36/5
f 28/55/5 36/15/5 34/21/5
f 41/1/9 51/65/9 52/63/9
f 26/44/5 34/21/5 37/23/5
f 22/64/9 67/75/9 51/65/9
f 16/24/6 6/30/6 56/66/6
f 23/68/5 40/13/5 36/15/5
f 24/31/3 32/7/3 80/9/3
f 8/39/3 44/46/3 81/57/3
f 7/69/5 42/54/5 48/43/5
f 32/7/8 55/32/8 56/66/8
f 19/27/7 4/34/7 52/63/7
f 9/71/5 46/45/5 49/40/5
f 12/16/6 16/24/6 61/67/6
f 15/70/5 48/43/5 46/45/5
f 17/72/5 49/40/5 43/42/5
f 22/64/9 39/49/9 66/51/9
f 22/64/1 41/1/1 82/3/1
f 66/76/10 58/187/10 57/77/10
f 63/79/10 62/82/10 61/80/10
f 64/81/10 61/80/10 56/66/10
f 65/78/10 57/77/10 62/82/10
f 74/83/10 75/89/10 71/84/10
f 72/86/10 73/87/10 69/62/10
f 70/85/10 71/84/10 73/87/10
f 51/88/10 67/90/10 75/89/10
f 75/89/10 65/78/10 63/79/10
f 73/87/10 64/81/10 55/32/10
f 71/84/10 63/79/10 64/81/10
f 67/90/10 66/76/10 65/78/10
f 52/91/10 51/88/10 74/83/10
f 60/93/10 70/85/10 72/86/10
f 53/94/10 72/86/10 68/47/10
f 59/92/10 74/83/10 70/85/10
f 79/59/10 91/127/10 89/95/10
f 42/54/10 7/69/10 94/96/10
f 87/98/10 88/126/10 108/99/10
f 1/35/5 84/188/5 83/101/5
f 43/42/5 87/98/5 86/102/5
f 90/103/10 92/128/10 112/104/10
f 35/25/4 76/12/4 20/106/4
f 47/2/2 25/29/2 17/108/2
f 33/28/2 27/6/2 15/110/2
f 38/8/4 30/26/4 14/112/4
f 25/29/2 33/28/2 9/111/2
f 30/26/4 35/25/4 11/107/4
f 76/12/4 50/11/4 1/114/4
f 7/69/10 45/5/10 93/115/10
f 27/6/2 45/5/2 7/69/2
f 3/109/2 86/189/2 85/116/2
f 5/113/10 40/13/10 98/117/10
f 85/116/10 86/189/10 106/119/10
f 77/56/10 80/9/10 101/121/10
f 83/101/10 84/188/10 104/123/10
f 82/3/10 92/128/10 90/103/10
f 50/11/4 89/190/4 84/125/4
f 31/36/5 83/101/5 88/126/5
f 78/58/10 90/103/10 91/127/10
f 21/41/5 88/126/5 87/98/5
f 47/2/10 85/116/10 92/128/10
f 96/129/10 116/150/10 121/130/10
f 98/117/5 118/148/5 117/131/5
f 94/96/5 114/146/5 115/132/5
f 100/122/10 120/147/10 122/133/10
f 110/105/1 112/104/1 107/135/1
f 109/137/1 111/140/1 103/138/1
f 111/140/1 110/105/1 108/136/1
f 112/104/1 105/120/1 106/119/1
f 89/95/10 91/127/10 111/140/10
f 84/125/10 89/190/10 109/141/10
f 91/127/10 90/103/10 110/105/10
f 81/57/10 77/56/10 100/122/10
f 40/13/10 23/68/10 99/143/10
f 38/8/10 5/113/10 97/118/10
f 80/9/10 38/8/10 96/129/10
f 92/128/10 85/116/10 105/120/10
f 88/126/10 83/101/10 103/124/10
f 23/68/10 42/54/10 95/97/10
f 86/102/10 87/98/10 107/100/10
f 45/5/10 81/57/10 102/134/10
f 113/145/3 122/133/3 115/132/3
f 120/147/3 121/130/3 118/148/3
f 122/133/3 120/147/3 119/149/3
f 121/130/3 116/150/3 117/131/3
f 97/118/4 117/131/4 116/150/4
f 102/134/10 122/133/10 113/145/10
f 99/143/5 119/149/5 118/148/5
f 101/121/10 121/130/10 120/147/10
f 93/115/2 113/145/2 114/146/2
f 95/97/5 115/132/5 119/149/5
f 154/185/5 123/191/5 124/192/5
f 124/192/5 125/193/5 126/194/5
f 126/194/5 127/195/5 128/196/5
f 128/196/5 129/197/5 130/198/5
f 130/198/5 131/199/5 132/200/5
f 132/200/5 133/201/5 134/202/5
f 134/202/5 135/203/5 136/204/5
f 136/204/5 137/205/5 138/183/5
f 138/183/5 139/206/5 140/207/5
f 140/207/5 141/208/5 142/209/5
f 142/209/5 143/210/5 144/211/5
f 144/211/5 145/212/5 146/184/5
f 146/184/5 147/213/5 148/214/5
f 148/214/5 149/215/5 150/216/5
f 150/216/5 151/217/5 152/218/5
f 152/218/5 153/219/5 154/185/5
f 154/185/5 124/192/5 126/194/5
f 126/194/5 128/196/5 130/198/5
f 130/198/5 132/200/5 134/202/5
f 134/202/5 136/204/5 138/183/5
f 138/183/5 140/207/5 142/209/5
f 142/209/5 144/211/5 146/184/5
f 146/184/5 148/214/5 150/216/5
f 150/216/5 152/218/5 154/185/5
f 154/185/5 126/194/5 130/198/5
f 130/198/5 134/202/5 138/183/5
f 138/183/5 142/209/5 146/184/5
f 146/184/5 150/216/5 154/185/5
f 154/185/5 130/198/5 138/183/5
