# Blender 4.1.1
# www.blender.org
mtllib player_L_arm.mtl
o Cube.001
v 0.509186 -1.513329 -0.447983
v 0.016795 0.059557 -0.262900
v 0.509186 -1.513329 0.248415
v 0.016795 0.059557 0.063332
v 1.098866 -1.513329 -0.447983
v 0.188082 0.296911 -0.262900
v 1.098866 -1.513329 0.248415
v 0.188082 0.296911 0.063332
vn 0.9543 0.2988 -0.0000
vn -0.0000 -0.1169 -0.9931
vn -0.8933 -0.4494 -0.0000
vn -0.0000 -0.1169 0.9931
vn -0.0000 1.0000 -0.0000
vn 0.8109 -0.5852 -0.0000
vn 0.0830 -0.0599 -0.9947
vn 0.0830 -0.0599 0.9947
vt 0.703834 0.922602
vt 0.623896 0.740004
vt 0.703834 0.731027
vt 0.666386 0.926807
vt 0.555988 0.734712
vt 0.644405 0.952497
vt 0.484517 0.771625
vt 0.577252 0.972842
vt 0.449523 0.830062
vt 0.453261 0.711106
vt 0.524732 0.674193
vt 0.659920 0.982537
vt 0.610924 0.969789
vt 0.626439 0.999829
s 0
usemtl マテリアル.002
f 2/1/1 3/2/1 1/3/1
f 4/4/2 7/5/2 3/2/2
f 8/6/3 5/7/3 7/5/3
f 5/7/4 2/8/4 1/9/4
f 7/5/5 1/10/5 3/11/5
f 4/12/6 6/13/6 8/6/6
f 2/1/1 4/4/1 3/2/1
f 4/4/7 8/6/7 7/5/7
f 8/6/3 6/13/3 5/7/3
f 5/7/8 6/13/8 2/8/8
f 7/5/5 5/7/5 1/10/5
f 4/12/6 2/14/6 6/13/6
