# Blender 4.1.1
# www.blender.org
mtllib hammer.mtl
o 円柱
v 0.000000 5.253493 -0.173841
v 0.000000 9.746508 -0.173842
v 0.033915 5.253493 -0.170500
v 0.033915 9.746508 -0.170501
v 0.066526 5.253493 -0.160608
v 0.066526 9.746508 -0.160609
v 0.096581 5.253493 -0.144543
v 0.096581 9.746508 -0.144544
v 0.122924 5.253493 -0.122924
v 0.122924 9.746508 -0.122925
v 0.144543 5.253493 -0.096581
v 0.144543 9.746508 -0.096582
v 0.160608 5.253493 -0.066526
v 0.160608 9.746508 -0.066527
v 0.170500 5.253493 -0.033915
v 0.170500 9.746508 -0.033916
v 0.173841 5.253493 -0.000000
v 0.173841 9.746508 -0.000001
v 0.170500 5.253493 0.033915
v 0.170500 9.746508 0.033914
v 0.160608 5.253493 0.066526
v 0.160608 9.746508 0.066525
v 0.144543 5.253493 0.096581
v 0.144543 9.746508 0.096580
v 0.122924 5.253493 0.122924
v 0.122924 9.746508 0.122923
v 0.096581 5.253493 0.144543
v 0.096581 9.746508 0.144542
v 0.066526 5.253493 0.160608
v 0.066526 9.746508 0.160607
v 0.033915 5.253493 0.170500
v 0.033915 9.746508 0.170499
v 0.000000 5.253493 0.173841
v 0.000000 9.746508 0.173840
v -0.033915 5.253493 0.170500
v -0.033915 9.746508 0.170499
v -0.066526 5.253493 0.160608
v -0.066526 9.746508 0.160607
v -0.096581 5.253493 0.144543
v -0.096581 9.746508 0.144542
v -0.122924 5.253493 0.122924
v -0.122924 9.746508 0.122923
v -0.144543 5.253493 0.096581
v -0.144543 9.746508 0.096580
v -0.160608 5.253493 0.066526
v -0.160608 9.746508 0.066525
v -0.170500 5.253493 0.033915
v -0.170500 9.746508 0.033914
v -0.173841 5.253493 -0.000000
v -0.173841 9.746508 -0.000001
v -0.170500 5.253493 -0.033915
v -0.170500 9.746508 -0.033916
v -0.160608 5.253493 -0.066526
v -0.160608 9.746508 -0.066527
v -0.144543 5.253493 -0.096581
v -0.144543 9.746508 -0.096582
v -0.122924 5.253493 -0.122924
v -0.122924 9.746508 -0.122925
v -0.096581 5.253493 -0.144543
v -0.096581 9.746508 -0.144544
v -0.066526 5.253493 -0.160608
v -0.066526 9.746508 -0.160609
v -0.033915 5.253493 -0.170500
v -0.033915 9.746508 -0.170501
v -0.883877 9.010603 2.796013
v -0.883877 10.778358 2.796013
v -0.883877 9.010603 -2.796015
v -0.883877 10.778358 -2.796015
v 0.883877 9.010603 2.796013
v 0.883877 10.778358 2.796013
v 0.883877 9.010603 -2.796015
v 0.883877 10.778358 -2.796015
v -0.786324 9.108156 -0.000001
v -0.786324 10.680805 -0.000001
v 0.786324 9.108156 -0.000001
v 0.786324 10.680805 -0.000001
v -0.773453 10.667933 -1.442177
v 0.773453 9.121027 -1.442177
v -0.773453 9.121027 -1.442177
v 0.773453 10.667933 -1.442177
v -0.773453 9.121027 1.442175
v 0.773453 10.667933 1.442175
v -0.773453 10.667933 1.442175
v 0.773453 9.121027 1.442175
v -0.878542 10.773022 -2.468877
v 0.878542 9.015939 -2.468877
v -0.878542 9.015939 -2.468877
v 0.878542 10.773022 -2.468877
v -0.878542 9.015939 2.468875
v 0.878542 10.773022 2.468875
v -0.878542 10.773022 2.468875
v 0.878542 9.015939 2.468875
v -1.000000 8.939129 0.641429
v -1.000000 10.805024 0.641429
v -1.000000 8.939129 -0.641431
v -1.000000 10.805024 -0.641431
v 1.000000 8.939129 0.641429
v 1.000000 10.805024 0.641429
v 1.000000 8.939129 -0.641431
v 1.000000 10.805024 -0.641431
v -0.284885 8.723178 0.284884
v -0.284885 8.995015 0.284884
v -0.284885 8.723178 -0.284886
v -0.284885 8.995015 -0.284886
v 0.284885 8.723178 0.284884
v 0.284885 8.995015 0.284884
v 0.284885 8.723178 -0.284886
v 0.284885 8.995015 -0.284886
vn 0.0980 -0.0000 -0.9952
vn 0.2903 -0.0000 -0.9569
vn 0.4714 -0.0000 -0.8819
vn 0.6344 -0.0000 -0.7730
vn 0.7730 -0.0000 -0.6344
vn 0.8819 -0.0000 -0.4714
vn 0.9569 -0.0000 -0.2903
vn 0.9952 -0.0000 -0.0980
vn 0.9952 -0.0000 0.0980
vn 0.9569 -0.0000 0.2903
vn 0.8819 -0.0000 0.4714
vn 0.7730 -0.0000 0.6344
vn 0.6344 -0.0000 0.7730
vn 0.4714 -0.0000 0.8819
vn 0.2903 -0.0000 0.9569
vn 0.0980 -0.0000 0.9952
vn -0.0980 -0.0000 0.9952
vn -0.2903 -0.0000 0.9569
vn -0.4714 -0.0000 0.8819
vn -0.6344 -0.0000 0.7730
vn -0.7730 -0.0000 0.6344
vn -0.8819 -0.0000 0.4714
vn -0.9569 -0.0000 0.2903
vn -0.9952 -0.0000 0.0980
vn -0.9952 -0.0000 -0.0980
vn -0.9569 -0.0000 -0.2903
vn -0.8819 -0.0000 -0.4714
vn -0.7730 -0.0000 -0.6344
vn -0.6344 -0.0000 -0.7730
vn -0.4714 -0.0000 -0.8819
vn -0.0000 1.0000 -0.0000
vn -0.2903 -0.0000 -0.9569
vn -0.0980 -0.0000 -0.9952
vn -0.0000 -1.0000 -0.0000
vn -0.9999 -0.0000 0.0163
vn -0.0000 -0.0000 -1.0000
vn 0.9999 -0.0000 -0.0163
vn -0.0000 -0.0000 1.0000
vn -0.0000 -0.9999 -0.0163
vn -0.0000 0.9999 -0.0163
vn -0.0000 1.0000 -0.0089
vn -0.0000 -1.0000 -0.0089
vn 1.0000 -0.0000 -0.0089
vn -1.0000 -0.0000 0.0089
vn 0.9948 -0.0000 0.1018
vn -0.0000 -0.9948 0.1018
vn -0.0000 0.9948 0.1018
vn -1.0000 -0.0000 -0.0089
vn -0.9948 -0.0000 -0.1018
vn -0.0000 1.0000 0.0089
vn -0.0000 -1.0000 0.0089
vn 1.0000 -0.0000 0.0089
vn -0.0000 0.9999 0.0163
vn -0.0000 -0.9999 0.0163
vn 0.9999 -0.0000 0.0163
vn -0.9948 -0.0000 0.1018
vn -0.9999 -0.0000 -0.0163
vn -0.0000 0.9948 -0.1018
vn -0.0000 -0.9948 -0.1018
vn 0.9948 -0.0000 -0.1018
vn -1.0000 -0.0000 -0.0000
vn 1.0000 -0.0000 -0.0000
vn -0.0000 1.0000 0.0002
vn -0.0000 1.0000 0.0001
vn -0.0000 1.0000 -0.0002
vn -0.0000 1.0000 -0.0001
vn -0.0002 -1.0000 -0.0001
vn -0.0000 -1.0000 -0.0001
vn -0.0000 -1.0000 0.0001
vn -0.0002 -1.0000 0.0001
vn 0.0002 -1.0000 0.0001
vn 0.0002 -1.0000 -0.0001
vt 0.120801 0.621485
vt 0.000179 0.633308
vt 0.000179 0.621485
vt 0.120801 0.633308
vt 0.000179 0.645131
vt 0.120801 0.645131
vt 0.000179 0.656954
vt 0.120801 0.656954
vt 0.000179 0.668777
vt 0.120801 0.668777
vt 0.000179 0.680600
vt 0.120801 0.680600
vt 0.000179 0.692423
vt 0.120801 0.692423
vt 0.000179 0.704246
vt 0.120801 0.704246
vt 0.000179 0.716069
vt 0.120801 0.716069
vt 0.000179 0.727892
vt 0.120801 0.727892
vt 0.000179 0.739715
vt 0.120801 0.739715
vt 0.000179 0.751538
vt 0.120801 0.751538
vt 0.000179 0.763361
vt 0.120801 0.763361
vt 0.000179 0.775184
vt 0.120801 0.775184
vt 0.000179 0.787007
vt 0.120801 0.787007
vt 0.000179 0.798830
vt 0.120801 0.798830
vt 0.000179 0.810653
vt 0.120801 0.810653
vt 0.000179 0.822476
vt 0.120801 0.822476
vt 0.000179 0.834299
vt 0.120801 0.834299
vt 0.000179 0.846122
vt 0.120801 0.846122
vt 0.000179 0.857945
vt 0.120801 0.857945
vt 0.000179 0.869768
vt 0.120801 0.869768
vt 0.000179 0.881591
vt 0.120801 0.881591
vt 0.000179 0.893414
vt 0.120801 0.893414
vt 0.000179 0.905237
vt 0.120801 0.905237
vt 0.000179 0.917060
vt 0.120801 0.917060
vt 0.000179 0.928883
vt 0.120801 0.928883
vt 0.000179 0.940706
vt 0.120801 0.940706
vt 0.000179 0.952529
vt 0.120801 0.952529
vt 0.000179 0.964352
vt 0.120801 0.964352
vt 0.000179 0.976175
vt 0.520581 0.628316
vt 0.545340 0.709935
vt 0.463720 0.734695
vt 0.120801 0.976175
vt 0.000179 0.987998
vt 0.120801 0.987998
vt 0.000179 0.999821
vt 0.429465 0.663998
vt 0.389258 0.739219
vt 0.314037 0.699012
vt 0.184815 0.878608
vt 0.247907 0.872168
vt 0.247686 0.878885
vt 0.184653 0.871890
vt 0.248185 0.808915
vt 0.186784 0.691696
vt 0.249878 0.686418
vt 0.249479 0.693043
vt 0.186660 0.684703
vt 0.251593 0.623200
vt 0.311372 0.692226
vt 0.310570 0.698739
vt 0.121789 0.695714
vt 0.128066 0.776782
vt 0.186805 0.747100
vt 0.186094 0.779760
vt 0.247081 0.778943
vt 0.305165 0.747850
vt 0.305425 0.776199
vt 0.247257 0.747286
vt 0.188220 0.959246
vt 0.244162 0.929885
vt 0.243571 0.959489
vt 0.185179 0.801798
vt 0.247899 0.802200
vt 0.310601 0.796754
vt 0.123009 0.796916
vt 0.187890 0.929637
vt 0.243832 0.900276
vt 0.184365 0.980637
vt 0.247237 0.980914
vt 0.128059 0.747081
vt 0.186985 0.714988
vt 0.305411 0.718499
vt 0.248222 0.714909
vt 0.184932 0.808636
vt 0.311372 0.803448
vt 0.188481 0.900032
vt 0.247398 0.987632
vt 0.127449 0.718448
vt 0.310653 0.000179
vt 0.155416 0.155416
vt 0.155416 0.000179
vt 0.310653 0.155416
vt 0.155416 0.310653
vt 0.310653 0.310653
vt 0.155416 0.465889
vt 0.310653 0.465889
vt 0.155416 0.621126
vt 0.000179 0.465889
vt 0.000179 0.310653
vt 0.465889 0.310653
vt 0.776722 0.000179
vt 0.621485 0.155416
vt 0.621485 0.000179
vt 0.776722 0.155416
vt 0.621485 0.310653
vt 0.776722 0.310653
vt 0.621485 0.465889
vt 0.776722 0.465889
vt 0.621485 0.621126
vt 0.466248 0.465889
vt 0.466248 0.310653
vt 0.931958 0.310653
vt 0.453890 0.728126
vt 0.445530 0.719766
vt 0.438961 0.709935
vt 0.434437 0.699012
vt 0.432130 0.687417
vt 0.432130 0.675594
vt 0.434437 0.663998
vt 0.438961 0.653075
vt 0.445530 0.643244
vt 0.453890 0.634884
vt 0.463720 0.628316
vt 0.474643 0.623791
vt 0.486239 0.621485
vt 0.498062 0.621485
vt 0.509658 0.623791
vt 0.530411 0.634884
vt 0.538771 0.643244
vt 0.545340 0.653075
vt 0.549864 0.663998
vt 0.552171 0.675594
vt 0.552171 0.687417
vt 0.549864 0.699012
vt 0.538772 0.719766
vt 0.530411 0.728126
vt 0.520581 0.734695
vt 0.509658 0.739219
vt 0.498062 0.741526
vt 0.486239 0.741526
vt 0.474643 0.739219
vt 0.120801 0.999821
vt 0.311731 0.687417
vt 0.311731 0.675594
vt 0.314037 0.663998
vt 0.318562 0.653075
vt 0.325130 0.643244
vt 0.333490 0.634884
vt 0.343321 0.628316
vt 0.354244 0.623791
vt 0.365840 0.621485
vt 0.377663 0.621485
vt 0.389258 0.623791
vt 0.400181 0.628316
vt 0.410012 0.634884
vt 0.418372 0.643244
vt 0.424941 0.653075
vt 0.431772 0.675594
vt 0.431772 0.687417
vt 0.429465 0.699013
vt 0.424941 0.709936
vt 0.418372 0.719766
vt 0.410012 0.728126
vt 0.400181 0.734695
vt 0.377663 0.741526
vt 0.365840 0.741526
vt 0.354244 0.739219
vt 0.343321 0.734695
vt 0.333490 0.728126
vt 0.325130 0.719766
vt 0.318562 0.709935
vt 0.188375 0.621485
vt 0.121160 0.688770
vt 0.122261 0.803853
vt 0.184145 0.987354
vt 0.310653 0.621126
vt 0.465889 0.465889
vt 0.776722 0.621126
vt 0.931958 0.465889
s 0
usemtl マテリアル.004
f 2/1/1 3/2/1 1/3/1
f 4/4/2 5/5/2 3/2/2
f 6/6/3 7/7/3 5/5/3
f 8/8/4 9/9/4 7/7/4
f 10/10/5 11/11/5 9/9/5
f 12/12/6 13/13/6 11/11/6
f 14/14/7 15/15/7 13/13/7
f 16/16/8 17/17/8 15/15/8
f 18/18/9 19/19/9 17/17/9
f 20/20/10 21/21/10 19/19/10
f 22/22/11 23/23/11 21/21/11
f 24/24/12 25/25/12 23/23/12
f 26/26/13 27/27/13 25/25/13
f 28/28/14 29/29/14 27/27/14
f 30/30/15 31/31/15 29/29/15
f 32/32/16 33/33/16 31/31/16
f 34/34/17 35/35/17 33/33/17
f 36/36/18 37/37/18 35/35/18
f 38/38/19 39/39/19 37/37/19
f 40/40/20 41/41/20 39/39/20
f 42/42/21 43/43/21 41/41/21
f 44/44/22 45/45/22 43/43/22
f 46/46/23 47/47/23 45/45/23
f 48/48/24 49/49/24 47/47/24
f 50/50/25 51/51/25 49/49/25
f 52/52/26 53/53/26 51/51/26
f 54/54/27 55/55/27 53/53/27
f 56/56/28 57/57/28 55/55/28
f 58/58/29 59/59/29 57/57/29
f 60/60/30 61/61/30 59/59/30
f 38/62/31 22/63/31 6/64/31
f 62/65/32 63/66/32 61/61/32
f 64/67/33 1/68/33 63/66/33
f 31/69/34 47/70/34 63/71/34
f 85/72/35 67/73/35 87/74/35
f 68/75/36 71/76/36 67/73/36
f 90/77/37 69/78/37 92/79/37
f 70/80/38 65/81/38 69/78/38
f 92/79/39 65/82/39 89/83/39
f 91/84/40 70/80/40 90/77/40
f 77/85/41 76/86/41 80/87/41
f 78/88/42 73/89/42 79/90/42
f 80/87/43 75/91/43 78/88/43
f 83/92/44 73/93/44 81/94/44
f 88/95/45 78/88/45 86/96/45
f 86/96/46 79/90/46 87/97/46
f 85/98/47 80/87/47 88/95/47
f 74/99/48 79/100/48 73/93/48
f 91/101/49 81/94/49 89/102/49
f 74/103/50 82/104/50 76/86/50
f 75/91/51 81/105/51 73/89/51
f 76/86/52 84/106/52 75/91/52
f 72/107/53 85/98/53 88/95/53
f 67/108/54 86/96/54 87/97/54
f 71/76/55 88/95/55 86/96/55
f 77/109/56 87/74/56 79/100/56
f 65/110/57 91/101/57 89/102/57
f 83/111/58 90/77/58 82/104/58
f 84/106/59 89/83/59 81/105/59
f 82/104/60 92/79/60 84/106/60
f 94/112/61 95/113/61 93/114/61
f 96/115/36 99/116/36 95/113/36
f 100/117/62 97/118/62 99/116/62
f 98/119/38 93/120/38 97/118/38
f 99/116/34 93/121/34 95/122/34
f 96/123/31 98/119/31 100/117/31
f 102/124/61 103/125/61 101/126/61
f 104/127/36 107/128/36 103/125/36
f 108/129/62 105/130/62 107/128/62
f 106/131/38 101/132/38 105/130/38
f 107/128/34 101/133/34 103/134/34
f 104/135/31 106/131/31 108/129/31
f 2/1/1 4/4/1 3/2/1
f 4/4/2 6/6/2 5/5/2
f 6/6/3 8/8/3 7/7/3
f 8/8/4 10/10/4 9/9/4
f 10/10/5 12/12/5 11/11/5
f 12/12/6 14/14/6 13/13/6
f 14/14/7 16/16/7 15/15/7
f 16/16/8 18/18/8 17/17/8
f 18/18/9 20/20/9 19/19/9
f 20/20/10 22/22/10 21/21/10
f 22/22/11 24/24/11 23/23/11
f 24/24/12 26/26/12 25/25/12
f 26/26/13 28/28/13 27/27/13
f 28/28/14 30/30/14 29/29/14
f 30/30/15 32/32/15 31/31/15
f 32/32/16 34/34/16 33/33/16
f 34/34/17 36/36/17 35/35/17
f 36/36/18 38/38/18 37/37/18
f 38/38/19 40/40/19 39/39/19
f 40/40/20 42/42/20 41/41/20
f 42/42/21 44/44/21 43/43/21
f 44/44/22 46/46/22 45/45/22
f 46/46/23 48/48/23 47/47/23
f 48/48/24 50/50/24 49/49/24
f 50/50/25 52/52/25 51/51/25
f 52/52/26 54/54/26 53/53/26
f 54/54/27 56/56/27 55/55/27
f 56/56/28 58/58/28 57/57/28
f 58/58/29 60/60/29 59/59/29
f 60/60/30 62/65/30 61/61/30
f 6/64/31 4/136/31 2/137/31
f 2/137/31 64/138/31 62/139/31
f 62/139/31 60/140/31 58/141/31
f 58/141/63 56/142/63 54/143/63
f 54/143/31 52/144/31 50/145/31
f 50/145/64 48/146/64 46/147/64
f 46/147/65 44/148/65 42/149/65
f 42/149/31 40/150/31 38/62/31
f 38/62/31 36/151/31 34/152/31
f 34/152/31 32/153/31 30/154/31
f 30/154/31 28/155/31 26/156/31
f 26/156/65 24/157/65 22/63/65
f 22/63/31 20/158/31 18/159/31
f 18/159/66 16/160/66 14/161/66
f 14/161/63 12/162/63 10/163/63
f 10/163/31 8/164/31 6/64/31
f 6/64/31 2/137/31 62/139/31
f 62/139/31 58/141/31 54/143/31
f 54/143/31 50/145/31 46/147/31
f 46/147/31 42/149/31 38/62/31
f 38/62/31 34/152/31 30/154/31
f 30/154/31 26/156/31 22/63/31
f 22/63/31 18/159/31 14/161/31
f 14/161/31 10/163/31 6/64/31
f 6/64/31 62/139/31 54/143/31
f 54/143/31 46/147/31 38/62/31
f 38/62/31 30/154/31 22/63/31
f 22/63/31 14/161/31 6/64/31
f 6/64/31 54/143/31 38/62/31
f 62/65/32 64/67/32 63/66/32
f 64/67/33 2/165/33 1/68/33
f 63/71/34 1/166/34 3/167/34
f 3/167/34 5/168/34 7/169/34
f 7/169/67 9/170/67 11/171/67
f 11/171/68 13/172/68 15/173/68
f 15/173/34 17/174/34 19/175/34
f 19/175/69 21/176/69 23/177/69
f 23/177/70 25/178/70 27/179/70
f 27/179/34 29/180/34 31/69/34
f 31/69/34 33/181/34 35/182/34
f 35/182/34 37/183/34 39/184/34
f 39/184/71 41/185/71 43/186/71
f 43/186/69 45/187/69 47/70/69
f 47/70/34 49/188/34 51/189/34
f 51/189/68 53/190/68 55/191/68
f 55/191/72 57/192/72 59/193/72
f 59/193/34 61/194/34 63/71/34
f 63/71/34 3/167/34 7/169/34
f 7/169/34 11/171/34 15/173/34
f 15/173/34 19/175/34 23/177/34
f 23/177/34 27/179/34 31/69/34
f 31/69/34 35/182/34 39/184/34
f 39/184/34 43/186/34 47/70/34
f 47/70/34 51/189/34 55/191/34
f 55/191/34 59/193/34 63/71/34
f 63/71/34 7/169/34 15/173/34
f 15/173/34 23/177/34 31/69/34
f 31/69/34 39/184/34 47/70/34
f 47/70/34 55/191/34 63/71/34
f 63/71/34 15/173/34 31/69/34
f 85/72/35 68/75/35 67/73/35
f 68/75/36 72/107/36 71/76/36
f 90/77/37 70/80/37 69/78/37
f 70/80/38 66/195/38 65/81/38
f 92/79/39 69/78/39 65/82/39
f 91/84/40 66/196/40 70/80/40
f 77/85/41 74/103/41 76/86/41
f 78/88/42 75/91/42 73/89/42
f 80/87/43 76/86/43 75/91/43
f 83/92/44 74/99/44 73/93/44
f 88/95/45 80/87/45 78/88/45
f 86/96/46 78/88/46 79/90/46
f 85/98/47 77/85/47 80/87/47
f 74/99/48 77/109/48 79/100/48
f 91/101/49 83/92/49 81/94/49
f 74/103/50 83/111/50 82/104/50
f 75/91/51 84/106/51 81/105/51
f 76/86/52 82/104/52 84/106/52
f 72/107/53 68/197/53 85/98/53
f 67/108/54 71/76/54 86/96/54
f 71/76/55 72/107/55 88/95/55
f 77/109/56 85/72/56 87/74/56
f 65/110/57 66/198/57 91/101/57
f 83/111/58 91/84/58 90/77/58
f 84/106/59 92/79/59 89/83/59
f 82/104/60 90/77/60 92/79/60
f 94/112/61 96/115/61 95/113/61
f 96/115/36 100/117/36 99/116/36
f 100/117/62 98/119/62 97/118/62
f 98/119/38 94/199/38 93/120/38
f 99/116/34 97/118/34 93/121/34
f 96/123/31 94/200/31 98/119/31
f 102/124/61 104/127/61 103/125/61
f 104/127/36 108/129/36 107/128/36
f 108/129/62 106/131/62 105/130/62
f 106/131/38 102/201/38 101/132/38
f 107/128/34 105/130/34 101/133/34
f 104/135/31 102/202/31 106/131/31
