# Blender 4.2.1 LTS
# www.blender.org
mtllib playerFlagDome.mtl
o 球
v 0.000000 5.808481 -3.881103
v 0.000000 3.881103 -5.808481
v 0.000000 1.362862 -6.851570
v 0.000000 -0.612671 -6.985800
v 0.265881 6.851570 -1.336675
v 0.521545 6.454038 -2.621983
v 0.757166 5.808481 -3.806528
v 0.963689 4.939707 -4.844791
v 1.133178 3.881103 -5.696872
v 1.259120 2.673350 -6.330025
v 1.336675 1.362862 -6.719919
v 1.362862 -0.612671 -6.851570
v 0.521545 6.851570 -1.259120
v 1.023047 6.454038 -2.469854
v 1.485234 5.808481 -3.585671
v 1.890344 4.939707 -4.563694
v 2.222809 3.881103 -5.366335
v 2.469853 2.673350 -5.962753
v 2.621982 1.362862 -6.330025
v 2.673350 -0.612671 -6.454037
v 0.757165 6.851570 -1.133178
v 1.485234 6.454038 -2.222809
v 2.156225 5.808481 -3.227018
v 2.744354 4.939707 -4.107216
v 3.227018 3.881103 -4.829574
v 3.585671 2.673350 -5.366336
v 3.806528 1.362862 -5.696872
v 3.881103 -0.612671 -5.808480
v 0.963689 6.851570 -0.963689
v 1.890344 6.454038 -1.890344
v 2.744354 5.808481 -2.744353
v 3.492900 4.939707 -3.492900
v 4.107215 3.881103 -4.107215
v 4.563694 2.673350 -4.563694
v 4.844791 1.362862 -4.844791
v 4.939707 -0.612671 -4.939705
v 1.133178 6.851570 -0.757165
v 2.222809 6.454038 -1.485234
v 3.227019 5.808481 -2.156225
v 4.107216 4.939707 -2.744354
v 4.829575 3.881103 -3.227018
v 5.366335 2.673350 -3.585671
v 5.696872 1.362862 -3.806528
v 5.808480 -0.612671 -3.881101
v 0.000000 6.985800 0.000000
v 1.259120 6.851570 -0.521545
v 2.469853 6.454038 -1.023047
v 3.585671 5.808481 -1.485233
v 4.563694 4.939707 -1.890344
v 5.366335 3.881103 -2.222808
v 5.962753 2.673350 -2.469854
v 6.330025 1.362862 -2.621981
v 6.454037 -0.612671 -2.673348
v 1.336675 6.851570 -0.265881
v 2.621982 6.454038 -0.521545
v 3.806528 5.808481 -0.757165
v 4.844791 4.939707 -0.963689
v 5.696871 3.881103 -1.133178
v 6.330025 2.673350 -1.259121
v 6.719918 1.362862 -1.336674
v 6.851569 -0.612671 -1.362861
v 1.362862 6.851570 0.000000
v 2.673350 6.454038 0.000000
v 3.881102 5.808481 0.000000
v 4.939706 4.939707 -0.000000
v 5.808479 3.881103 0.000001
v 6.454037 2.673350 -0.000000
v 6.851569 1.362862 0.000001
v 6.985798 -0.612671 0.000001
v 1.336675 6.851570 0.265881
v 2.621982 6.454038 0.521545
v 3.806528 5.808481 0.757166
v 4.844791 4.939707 0.963689
v 5.696871 3.881103 1.133179
v 6.330025 2.673350 1.259120
v 6.719918 1.362862 1.336675
v 6.851567 -0.612671 1.362863
v 1.259120 6.851570 0.521545
v 2.469853 6.454038 1.023047
v 3.585670 5.808481 1.485234
v 4.563694 4.939707 1.890344
v 5.366334 3.881103 2.222809
v 5.962753 2.673350 2.469853
v 6.330024 1.362862 2.621983
v 6.454035 -0.612671 2.673350
v 1.133178 6.851570 0.757165
v 2.222809 6.454038 1.485234
v 3.227018 5.808481 2.156225
v 4.107215 4.939707 2.744354
v 4.829573 3.881103 3.227018
v 5.366335 2.673350 3.585670
v 5.696871 1.362862 3.806528
v 5.808477 -0.612671 3.881102
v 0.963688 6.851570 0.963689
v 1.890343 6.454038 1.890344
v 2.744353 5.808481 2.744354
v 3.492900 4.939707 3.492900
v 4.107214 3.881103 4.107215
v 4.563694 2.673350 4.563693
v 4.844790 1.362862 4.844791
v 4.939703 -0.612671 4.939706
v 0.757165 6.851570 1.133178
v 1.485233 6.454038 2.222809
v 2.156224 5.808481 3.227018
v 2.744354 4.939707 4.107215
v 3.227017 3.881103 4.829574
v 3.585671 2.673350 5.366335
v 3.806527 1.362862 5.696871
v 3.881099 -0.612671 5.808479
v 0.521544 6.851570 1.259120
v 1.023046 6.454038 2.469853
v 1.485232 5.808481 3.585670
v 1.890344 4.939707 4.563694
v 2.222808 3.881103 5.366334
v 2.469853 2.673350 5.962752
v 2.621981 1.362862 6.330024
v 2.673347 -0.612671 6.454035
v 0.265881 6.851570 1.336674
v 0.521544 6.454038 2.621982
v 0.757165 5.808481 3.806527
v 0.963689 4.939707 4.844791
v 1.133177 3.881103 5.696870
v 1.259120 2.673350 6.330024
v 1.336674 1.362862 6.719917
v 1.362859 -0.612671 6.851566
v -0.000000 6.851570 1.362861
v -0.000000 6.454038 2.673349
v -0.000001 5.808481 3.881101
v -0.000000 4.939707 4.939706
v -0.000001 3.881103 5.808478
v 0.000000 2.673350 6.454036
v -0.000001 1.362862 6.851568
v -0.000002 -0.612671 6.985795
v -0.265881 6.851570 1.336674
v -0.521545 6.454038 2.621982
v -0.757166 5.808481 3.806526
v -0.963689 4.939707 4.844790
v -1.133179 3.881103 5.696870
v -1.259120 2.673350 6.330023
v -1.336676 1.362862 6.719916
v -1.362863 -0.612671 6.851565
v -0.521544 6.851570 1.259119
v -1.023047 6.454038 2.469853
v -1.485234 5.808481 3.585669
v -1.890344 4.939707 4.563693
v -2.222809 3.881103 5.366334
v -2.469852 2.673350 5.962751
v -2.621982 1.362862 6.330022
v -2.673350 -0.612671 6.454032
v -0.757165 6.851570 1.133178
v -1.485234 6.454038 2.222809
v -2.156224 5.808481 3.227016
v -2.744354 4.939707 4.107215
v -3.227018 3.881103 4.829573
v -3.585670 2.673350 5.366334
v -3.806528 1.362862 5.696869
v -3.881102 -0.612671 5.808475
v -0.963688 6.851570 0.963688
v -1.890344 6.454038 1.890343
v -2.744353 5.808481 2.744352
v -3.492899 4.939707 3.492899
v -4.107214 3.881103 4.107213
v -4.563692 2.673350 4.563693
v -4.844790 1.362862 4.844789
v -4.939704 -0.612671 4.939701
v -1.133178 6.851570 0.757165
v -2.222809 6.454038 1.485233
v -3.227017 5.808481 2.156223
v -4.107215 4.939707 2.744353
v -4.829573 3.881103 3.227016
v -5.366334 2.673350 3.585670
v -5.696871 1.362862 3.806525
v -5.808477 -0.612671 3.881097
v -1.259119 6.851570 0.521544
v -2.469852 6.454038 1.023046
v -3.585669 5.808481 1.485232
v -4.563693 4.939707 1.890343
v -5.366334 3.881103 2.222807
v -5.962751 2.673350 2.469852
v -6.330023 1.362862 2.621979
v -6.454033 -0.612671 2.673345
v -1.336674 6.851570 0.265881
v -2.621981 6.454038 0.521544
v -3.806525 5.808481 0.757164
v -4.844790 4.939707 0.963689
v -5.696869 3.881103 1.133177
v -6.330023 2.673350 1.259120
v -6.719916 1.362862 1.336673
v -6.851564 -0.612671 1.362858
v -1.362861 6.851570 -0.000000
v -2.673349 6.454038 -0.000000
v -3.881099 5.808481 -0.000001
v -4.939705 4.939707 -0.000000
v -5.808477 3.881103 -0.000001
v -6.454035 2.673350 -0.000000
v -6.851567 1.362862 -0.000002
v -6.985794 -0.612671 -0.000003
v -1.336674 6.851570 -0.265881
v -2.621981 6.454038 -0.521545
v -3.806525 5.808481 -0.757166
v -4.844790 4.939707 -0.963689
v -5.696868 3.881103 -1.133179
v -6.330022 2.673350 -1.259120
v -6.719915 1.362862 -1.336676
v -6.851563 -0.612671 -1.362864
v -1.259119 6.851570 -0.521544
v -2.469852 6.454038 -1.023047
v -3.585668 5.808481 -1.485233
v -4.563693 4.939707 -1.890344
v -5.366333 3.881103 -2.222809
v -5.962751 2.673350 -2.469852
v -6.330021 1.362862 -2.621983
v -6.454030 -0.612671 -2.673350
v -1.133177 6.851570 -0.757165
v -2.222808 6.454038 -1.485233
v -3.227015 5.808481 -2.156224
v -4.107214 4.939707 -2.744353
v -4.829571 3.881103 -3.227018
v -5.366334 2.673350 -3.585670
v -5.696868 1.362862 -3.806528
v -5.808473 -0.612671 -3.881102
v -0.963688 6.851570 -0.963688
v -1.890343 6.454038 -1.890343
v -2.744350 5.808481 -2.744352
v -3.492899 4.939707 -3.492899
v -4.107212 3.881103 -4.107214
v -4.563692 2.673350 -4.563692
v -4.844788 1.362862 -4.844790
v -4.939699 -0.612671 -4.939704
v -0.757165 6.851570 -1.133177
v -1.485233 6.454038 -2.222808
v -2.156222 5.808481 -3.227016
v -2.744353 4.939707 -4.107215
v -3.227015 3.881103 -4.829573
v -3.585669 2.673350 -5.366334
v -3.806525 1.362862 -5.696870
v -3.881096 -0.612671 -5.808476
v -0.521544 6.851570 -1.259119
v -1.023046 6.454038 -2.469852
v -1.485231 5.808481 -3.585668
v -1.890343 4.939707 -4.563693
v -2.222806 3.881103 -5.366333
v -2.469852 2.673350 -5.962751
v -2.621979 1.362862 -6.330022
v -2.673344 -0.612671 -6.454031
v -0.265881 6.851570 -1.336673
v -0.521544 6.454038 -2.621981
v -0.757163 5.808481 -3.806524
v -0.963688 4.939707 -4.844790
v -1.133176 3.881103 -5.696868
v -1.259119 2.673350 -6.330022
v -1.336672 1.362862 -6.719915
v -1.362857 -0.612671 -6.851562
v 0.000000 6.851570 -1.362860
v 0.000000 6.454038 -2.673348
v 0.000001 4.939707 -4.939705
v 0.000000 2.673350 -6.454034
vn 0.0464 0.8810 -0.4709
vn 0.0624 0.7715 -0.6332
vn 0.0759 0.6326 -0.7708
vn 0.0865 0.4696 -0.8786
vn 0.0938 0.2890 -0.9527
vn 0.0978 0.0675 -0.9929
vn 0.0097 0.9951 -0.0980
vn 0.0286 0.9565 -0.2902
vn 0.0846 0.9565 -0.2790
vn 0.1374 0.8810 -0.4528
vn 0.1847 0.7715 -0.6088
vn 0.2248 0.6326 -0.7412
vn 0.2563 0.4696 -0.8448
vn 0.2779 0.2890 -0.9161
vn 0.2896 0.0675 -0.9548
vn 0.0286 0.9951 -0.0942
vn 0.4162 0.4696 -0.7786
vn 0.4513 0.2890 -0.8443
vn 0.4703 0.0675 -0.8799
vn 0.0464 0.9951 -0.0869
vn 0.1374 0.9565 -0.2571
vn 0.2230 0.8810 -0.4173
vn 0.2999 0.7715 -0.5611
vn 0.3651 0.6326 -0.6831
vn 0.3002 0.8810 -0.3658
vn 0.4036 0.7715 -0.4918
vn 0.4913 0.6326 -0.5987
vn 0.5601 0.4696 -0.6825
vn 0.6073 0.2890 -0.7400
vn 0.6329 0.0675 -0.7712
vn 0.0625 0.9951 -0.0761
vn 0.1850 0.9565 -0.2254
vn 0.7400 0.2890 -0.6073
vn 0.7712 0.0675 -0.6329
vn 0.0761 0.9951 -0.0625
vn 0.2254 0.9565 -0.1850
vn 0.3658 0.8810 -0.3002
vn 0.4918 0.7715 -0.4036
vn 0.5987 0.6326 -0.4913
vn 0.6825 0.4696 -0.5601
vn 0.4173 0.8810 -0.2230
vn 0.5611 0.7715 -0.2999
vn 0.6831 0.6326 -0.3651
vn 0.7786 0.4696 -0.4162
vn 0.8443 0.2890 -0.4513
vn 0.8799 0.0675 -0.4703
vn 0.0869 0.9951 -0.0464
vn 0.2571 0.9565 -0.1374
vn 0.9161 0.2890 -0.2779
vn 0.9548 0.0675 -0.2896
vn 0.0942 0.9951 -0.0286
vn 0.2790 0.9565 -0.0846
vn 0.4528 0.8810 -0.1374
vn 0.6088 0.7715 -0.1847
vn 0.7412 0.6326 -0.2248
vn 0.8448 0.4696 -0.2563
vn 0.6332 0.7715 -0.0624
vn 0.7708 0.6326 -0.0759
vn 0.8786 0.4696 -0.0865
vn 0.9527 0.2890 -0.0938
vn 0.9929 0.0675 -0.0978
vn 0.0980 0.9951 -0.0097
vn 0.2902 0.9565 -0.0286
vn 0.4709 0.8810 -0.0464
vn 0.9929 0.0675 0.0978
vn 0.0980 0.9951 0.0097
vn 0.2902 0.9565 0.0286
vn 0.4709 0.8810 0.0464
vn 0.6332 0.7715 0.0624
vn 0.7708 0.6326 0.0759
vn 0.8786 0.4696 0.0865
vn 0.9527 0.2890 0.0938
vn 0.7412 0.6326 0.2248
vn 0.8448 0.4696 0.2563
vn 0.9161 0.2890 0.2779
vn 0.9548 0.0675 0.2896
vn 0.0942 0.9951 0.0286
vn 0.2790 0.9565 0.0846
vn 0.4528 0.8810 0.1374
vn 0.6088 0.7715 0.1847
vn 0.0869 0.9951 0.0464
vn 0.2571 0.9565 0.1374
vn 0.4173 0.8810 0.2231
vn 0.5611 0.7715 0.2999
vn 0.6831 0.6326 0.3651
vn 0.7786 0.4696 0.4162
vn 0.8443 0.2890 0.4513
vn 0.8799 0.0675 0.4703
vn 0.5987 0.6326 0.4913
vn 0.6825 0.4696 0.5601
vn 0.7400 0.2890 0.6073
vn 0.7712 0.0675 0.6329
vn 0.0761 0.9951 0.0625
vn 0.2254 0.9565 0.1850
vn 0.3658 0.8810 0.3002
vn 0.4918 0.7715 0.4036
vn 0.1850 0.9565 0.2254
vn 0.3002 0.8810 0.3658
vn 0.4036 0.7715 0.4918
vn 0.4913 0.6326 0.5987
vn 0.5601 0.4696 0.6825
vn 0.6073 0.2890 0.7400
vn 0.6329 0.0675 0.7712
vn 0.0625 0.9951 0.0761
vn 0.4162 0.4696 0.7786
vn 0.4513 0.2890 0.8443
vn 0.4703 0.0675 0.8799
vn 0.0464 0.9951 0.0869
vn 0.1374 0.9565 0.2571
vn 0.2230 0.8810 0.4173
vn 0.2999 0.7715 0.5611
vn 0.3651 0.6326 0.6831
vn 0.0846 0.9565 0.2790
vn 0.1374 0.8810 0.4528
vn 0.1847 0.7715 0.6088
vn 0.2248 0.6326 0.7412
vn 0.2563 0.4696 0.8448
vn 0.2779 0.2890 0.9161
vn 0.2896 0.0675 0.9548
vn 0.0286 0.9951 0.0942
vn 0.0865 0.4696 0.8786
vn 0.0938 0.2890 0.9527
vn 0.0978 0.0675 0.9929
vn 0.0097 0.9951 0.0980
vn 0.0286 0.9565 0.2902
vn 0.0464 0.8810 0.4709
vn 0.0624 0.7715 0.6332
vn 0.0759 0.6326 0.7708
vn -0.0464 0.8810 0.4709
vn -0.0624 0.7715 0.6332
vn -0.0759 0.6326 0.7708
vn -0.0865 0.4696 0.8786
vn -0.0938 0.2890 0.9527
vn -0.0978 0.0675 0.9929
vn -0.0097 0.9951 0.0980
vn -0.0286 0.9565 0.2902
vn -0.2779 0.2890 0.9161
vn -0.2896 0.0675 0.9548
vn -0.0286 0.9951 0.0942
vn -0.0846 0.9565 0.2790
vn -0.1374 0.8810 0.4528
vn -0.1847 0.7715 0.6088
vn -0.2248 0.6326 0.7412
vn -0.2563 0.4696 0.8448
vn -0.2999 0.7715 0.5611
vn -0.3651 0.6326 0.6831
vn -0.4162 0.4696 0.7786
vn -0.4513 0.2890 0.8443
vn -0.4703 0.0675 0.8799
vn -0.0464 0.9951 0.0869
vn -0.1374 0.9565 0.2571
vn -0.2230 0.8810 0.4173
vn -0.6329 0.0675 0.7712
vn -0.0625 0.9951 0.0761
vn -0.1850 0.9565 0.2254
vn -0.3002 0.8810 0.3658
vn -0.4036 0.7715 0.4918
vn -0.4913 0.6326 0.5987
vn -0.5601 0.4696 0.6825
vn -0.6073 0.2890 0.7400
vn -0.4918 0.7715 0.4036
vn -0.5987 0.6326 0.4913
vn -0.6825 0.4696 0.5601
vn -0.7400 0.2890 0.6073
vn -0.7712 0.0675 0.6329
vn -0.0761 0.9951 0.0625
vn -0.2254 0.9565 0.1850
vn -0.3658 0.8810 0.3002
vn -0.8799 0.0675 0.4703
vn -0.0869 0.9951 0.0464
vn -0.2571 0.9565 0.1374
vn -0.4173 0.8810 0.2230
vn -0.5611 0.7715 0.2999
vn -0.6831 0.6326 0.3651
vn -0.7786 0.4696 0.4162
vn -0.8443 0.2890 0.4513
vn -0.7412 0.6326 0.2248
vn -0.8448 0.4696 0.2563
vn -0.9161 0.2890 0.2779
vn -0.9548 0.0675 0.2896
vn -0.0942 0.9951 0.0286
vn -0.2790 0.9565 0.0846
vn -0.4528 0.8810 0.1374
vn -0.6088 0.7715 0.1847
vn -0.0980 0.9951 0.0097
vn -0.2902 0.9565 0.0286
vn -0.4709 0.8810 0.0464
vn -0.6332 0.7715 0.0624
vn -0.7708 0.6326 0.0759
vn -0.8786 0.4696 0.0865
vn -0.9527 0.2890 0.0938
vn -0.9929 0.0675 0.0978
vn -0.7708 0.6326 -0.0759
vn -0.8786 0.4696 -0.0865
vn -0.9527 0.2890 -0.0938
vn -0.9929 0.0675 -0.0978
vn -0.0980 0.9951 -0.0097
vn -0.2902 0.9565 -0.0286
vn -0.4709 0.8810 -0.0464
vn -0.6332 0.7715 -0.0624
vn -0.2790 0.9565 -0.0846
vn -0.4528 0.8810 -0.1374
vn -0.6088 0.7715 -0.1847
vn -0.7412 0.6326 -0.2248
vn -0.8448 0.4696 -0.2563
vn -0.9161 0.2890 -0.2779
vn -0.9548 0.0675 -0.2896
vn -0.0942 0.9951 -0.0286
vn -0.7786 0.4696 -0.4162
vn -0.8443 0.2890 -0.4513
vn -0.8799 0.0675 -0.4703
vn -0.0869 0.9951 -0.0464
vn -0.2571 0.9565 -0.1374
vn -0.4173 0.8810 -0.2231
vn -0.5611 0.7715 -0.2999
vn -0.6831 0.6326 -0.3651
vn -0.3658 0.8810 -0.3002
vn -0.4918 0.7715 -0.4036
vn -0.5987 0.6326 -0.4913
vn -0.6825 0.4696 -0.5601
vn -0.7400 0.2890 -0.6073
vn -0.7712 0.0675 -0.6329
vn -0.0761 0.9951 -0.0625
vn -0.2254 0.9565 -0.1850
vn -0.6073 0.2890 -0.7400
vn -0.6329 0.0675 -0.7713
vn -0.0625 0.9951 -0.0761
vn -0.1850 0.9565 -0.2254
vn -0.3002 0.8810 -0.3658
vn -0.4036 0.7715 -0.4918
vn -0.4913 0.6326 -0.5987
vn -0.5601 0.4696 -0.6825
vn -0.2230 0.8810 -0.4173
vn -0.2999 0.7715 -0.5611
vn -0.3651 0.6326 -0.6831
vn -0.4162 0.4696 -0.7786
vn -0.4513 0.2890 -0.8443
vn -0.4703 0.0675 -0.8799
vn -0.0464 0.9951 -0.0869
vn -0.1374 0.9565 -0.2571
vn -0.2779 0.2890 -0.9161
vn -0.2896 0.0675 -0.9548
vn -0.0286 0.9951 -0.0942
vn -0.0846 0.9565 -0.2790
vn -0.1374 0.8810 -0.4528
vn -0.1847 0.7715 -0.6088
vn -0.2248 0.6326 -0.7412
vn -0.2563 0.4696 -0.8448
vn -0.0624 0.7715 -0.6332
vn -0.0759 0.6326 -0.7708
vn -0.0865 0.4696 -0.8786
vn -0.0938 0.2890 -0.9527
vn -0.0978 0.0675 -0.9929
vn -0.0097 0.9951 -0.0980
vn -0.0286 0.9565 -0.2902
vn -0.0000 -1.0000 -0.0000
vn -0.0464 0.8810 -0.4709
vn 0.2231 0.8810 0.4173
vn -0.2231 0.8810 0.4173
vn -0.2254 0.9566 0.1850
vn -0.6329 0.0675 -0.7712
vn -0.2231 0.8810 -0.4173
vt 0.280764 0.667389
vt 0.225022 0.655873
vt 0.273908 0.645691
vt 0.315949 0.653770
vt 0.306710 0.633613
vt 0.330309 0.621063
vt 0.341847 0.638030
vt 0.360696 0.622848
vt 0.348053 0.608155
vt 0.374771 0.607616
vt 0.361262 0.595876
vt 0.375019 0.578254
vt 0.388264 0.583949
vt 0.135405 0.685966
vt 0.025818 0.693151
vt 0.131925 0.664825
vt 0.228565 0.678331
vt 0.221450 0.634657
vt 0.267878 0.625553
vt 0.299109 0.614916
vt 0.321020 0.604806
vt 0.337782 0.594611
vt 0.350523 0.584726
vt 0.364273 0.570775
vt 0.023370 0.658999
vt 0.130990 0.643637
vt 0.329647 0.581550
vt 0.342144 0.573840
vt 0.356033 0.563498
vt 0.024197 0.637768
vt 0.130098 0.622791
vt 0.218190 0.614399
vt 0.263369 0.606188
vt 0.292869 0.597528
vt 0.313511 0.589612
vt 0.259416 0.588044
vt 0.287562 0.581199
vt 0.307770 0.574869
vt 0.323384 0.568777
vt 0.335752 0.562947
vt 0.349826 0.555255
vt 0.024667 0.616236
vt 0.129364 0.602195
vt 0.216353 0.594570
vt 0.318751 0.556184
vt 0.331113 0.552011
vt 0.345300 0.546796
vt 0.025331 0.594600
vt 0.128859 0.581852
vt 0.215017 0.575435
vt 0.256286 0.570599
vt 0.283484 0.565413
vt 0.303474 0.560576
vt 0.254202 0.553495
vt 0.281044 0.549756
vt 0.300226 0.546673
vt 0.315538 0.543671
vt 0.328070 0.540956
vt 0.342524 0.537820
vt 0.026456 0.572928
vt 0.128643 0.561799
vt 0.213130 0.557024
vt 0.313602 0.531129
vt 0.326248 0.529650
vt 0.341554 0.528285
vt 0.027756 0.551227
vt 0.128776 0.542010
vt 0.211714 0.538889
vt 0.252882 0.536704
vt 0.279160 0.534508
vt 0.298360 0.532775
vt 0.278281 0.519350
vt 0.297518 0.518954
vt 0.312803 0.518543
vt 0.325701 0.518202
vt 0.342597 0.517799
vt 0.029081 0.529646
vt 0.129279 0.522418
vt 0.211756 0.520841
vt 0.252078 0.520143
vt 0.341099 0.507235
vt 0.030761 0.508484
vt 0.130110 0.503024
vt 0.212245 0.502946
vt 0.252029 0.503626
vt 0.278345 0.504210
vt 0.297673 0.505131
vt 0.312974 0.505958
vt 0.325740 0.506696
vt 0.279343 0.488970
vt 0.298864 0.491225
vt 0.314203 0.493336
vt 0.326837 0.495256
vt 0.341689 0.497477
vt 0.032870 0.487890
vt 0.131198 0.483856
vt 0.212138 0.484987
vt 0.252963 0.487020
vt 0.034806 0.467612
vt 0.132517 0.464832
vt 0.213435 0.466921
vt 0.254361 0.470123
vt 0.281260 0.473467
vt 0.301177 0.477156
vt 0.316646 0.480664
vt 0.329280 0.483980
vt 0.343956 0.488339
vt 0.284117 0.457562
vt 0.304734 0.462837
vt 0.320453 0.467846
vt 0.333243 0.472737
vt 0.348115 0.479624
vt 0.036779 0.448044
vt 0.133955 0.445924
vt 0.215064 0.448590
vt 0.256498 0.452821
vt 0.135353 0.427129
vt 0.215964 0.429593
vt 0.259608 0.435064
vt 0.288482 0.441288
vt 0.309399 0.447910
vt 0.325754 0.454712
vt 0.338803 0.461366
vt 0.353426 0.470413
vt 0.038776 0.429393
vt 0.332790 0.441200
vt 0.346221 0.449921
vt 0.360726 0.462174
vt 0.040168 0.411225
vt 0.136630 0.408345
vt 0.218005 0.410155
vt 0.263112 0.416245
vt 0.293506 0.423902
vt 0.315766 0.432470
vt 0.220012 0.389842
vt 0.267294 0.396254
vt 0.299813 0.405393
vt 0.323770 0.416035
vt 0.341864 0.427018
vt 0.355951 0.438223
vt 0.370718 0.454427
vt 0.041096 0.394060
vt 0.137586 0.389525
vt 0.353306 0.411852
vt 0.368358 0.426043
vt 0.383504 0.448128
vt 0.041289 0.378021
vt 0.137987 0.370609
vt 0.221829 0.368387
vt 0.272051 0.374678
vt 0.307462 0.385310
vt 0.333685 0.398228
vt 0.222230 0.345141
vt 0.277433 0.351347
vt 0.316546 0.363097
vt 0.345837 0.378513
vt 0.367561 0.395223
vt 0.383913 0.412587
vt 0.399882 0.436946
vt 0.040690 0.363460
vt 0.137523 0.351582
vt 0.385190 0.376771
vt 0.402990 0.398278
vt 0.418965 0.428920
vt 0.038273 0.359323
vt 0.134131 0.332459
vt 0.222820 0.320596
vt 0.282816 0.324817
vt 0.327193 0.337827
vt 0.360695 0.356209
vt 0.339516 0.308499
vt 0.378952 0.330340
vt 0.407350 0.355918
vt 0.427099 0.383014
vt 0.442904 0.420377
vt 0.032034 0.346256
vt 0.129510 0.312898
vt 0.221849 0.293806
vt 0.288134 0.294606
vt 0.457973 0.367124
vt 0.470848 0.416395
vt 0.025148 0.334774
vt 0.123276 0.293052
vt 0.217746 0.264116
vt 0.292814 0.260307
vt 0.353532 0.273580
vt 0.401589 0.299374
vt 0.435715 0.331783
vt 0.369085 0.230326
vt 0.430041 0.260635
vt 0.473317 0.302555
vt 0.500116 0.349973
vt 0.512424 0.415699
vt 0.015764 0.319447
vt 0.116105 0.272679
vt 0.210963 0.231794
vt 0.295227 0.218804
vt 0.557616 0.332014
vt 0.562720 0.424998
vt 0.010012 0.314242
vt 0.106016 0.252871
vt 0.198631 0.196421
vt 0.293780 0.170693
vt 0.385209 0.175374
vt 0.465983 0.209864
vt 0.524171 0.265338
vt 0.399570 0.102093
vt 0.511321 0.139311
vt 0.596341 0.213734
vt 0.641203 0.313189
vt 0.628809 0.450220
vt 0.004270 0.312131
vt 0.092574 0.234244
vt 0.179779 0.159462
vt 0.283801 0.111689
vt 0.000089 0.313239
vt 0.075477 0.217790
vt 0.151224 0.122626
vt 0.259086 0.042720
vt 0.406373 0.000089
vt 0.564941 0.036587
vt 0.707426 0.130735
vt 0.772705 0.293289
vt 0.719917 0.502978
vt 0.585232 0.961490
vt 0.434997 0.916249
vt 0.530181 0.873469
vt 0.603533 0.802417
vt 0.687181 0.867993
vt 0.756023 0.755076
vt 0.648816 0.714149
vt 0.786552 0.566783
vt 0.655207 0.554015
vt 0.094954 0.857565
vt 0.000089 0.774812
vt 0.109216 0.837571
vt 0.193355 0.941182
vt 0.214689 0.898911
vt 0.315302 0.996929
vt 0.325534 0.926181
vt 0.452437 0.999911
vt 0.119939 0.816223
vt 0.227598 0.858266
vt 0.325576 0.869584
vt 0.413707 0.851814
vt 0.485100 0.812360
vt 0.538616 0.756732
vt 0.570855 0.691550
vt 0.575435 0.593583
vt 0.005674 0.772193
vt 0.488197 0.722972
vt 0.512030 0.674621
vt 0.519211 0.607537
vt 0.011599 0.766147
vt 0.127600 0.794235
vt 0.234748 0.820860
vt 0.320422 0.822515
vt 0.392471 0.801447
vt 0.447854 0.766935
vt 0.237018 0.787111
vt 0.313023 0.781951
vt 0.372855 0.760991
vt 0.417370 0.731548
vt 0.449352 0.696665
vt 0.468774 0.659970
vt 0.477439 0.609841
vt 0.017584 0.757015
vt 0.132733 0.772166
vt 0.419306 0.674921
vt 0.436771 0.646393
vt 0.448999 0.607661
vt 0.022726 0.745270
vt 0.135862 0.750295
vt 0.236528 0.756460
vt 0.304714 0.747371
vt 0.355463 0.727699
vt 0.392565 0.702777
vt 0.234261 0.728544
vt 0.296443 0.717212
vt 0.340316 0.699594
vt 0.372276 0.678392
vt 0.395477 0.655851
vt 0.411483 0.632928
vt 0.424717 0.600751
vt 0.026887 0.731376
vt 0.137462 0.728777
vt 0.376313 0.638852
vt 0.391299 0.620100
vt 0.405095 0.593929
vt 0.026813 0.726850
vt 0.135730 0.707256
vt 0.232252 0.702190
vt 0.288476 0.690955
vt 0.327191 0.675449
vt 0.355643 0.656956
vt 0.026958 0.698267
s 0
usemtl マテリアル.002
f 1/1/1 6/2/1 7/3/1
f 256/4/2 7/3/2 8/5/2
f 256/4/3 9/6/3 2/7/3
f 257/8/4 9/6/4 10/9/4
f 3/10/5 10/9/5 11/11/5
f 3/10/6 12/12/6 4/13/6
f 254/14/7 45/15/7 5/16/7
f 255/17/8 5/16/8 6/2/8
f 5/16/9 14/18/9 6/2/9
f 6/2/10 15/19/10 7/3/10
f 7/3/11 16/20/11 8/5/11
f 8/5/12 17/21/12 9/6/12
f 9/6/13 18/22/13 10/9/13
f 11/11/14 18/22/14 19/23/14
f 12/12/15 19/23/15 20/24/15
f 5/16/16 45/25/16 13/26/16
f 17/21/17 26/27/17 18/22/17
f 18/22/18 27/28/18 19/23/18
f 20/24/19 27/28/19 28/29/19
f 13/26/20 45/30/20 21/31/20
f 13/26/21 22/32/21 14/18/21
f 14/18/22 23/33/22 15/19/22
f 15/19/23 24/34/23 16/20/23
f 16/20/24 25/35/24 17/21/24
f 22/32/25 31/36/25 23/33/25
f 23/33/26 32/37/26 24/34/26
f 24/34/27 33/38/27 25/35/27
f 25/35/28 34/39/28 26/27/28
f 26/27/29 35/40/29 27/28/29
f 28/29/30 35/40/30 36/41/30
f 21/31/31 45/42/31 29/43/31
f 21/31/32 30/44/32 22/32/32
f 35/40/33 42/45/33 43/46/33
f 36/41/34 43/46/34 44/47/34
f 29/43/35 45/48/35 37/49/35
f 29/43/36 38/50/36 30/44/36
f 30/44/37 39/51/37 31/36/37
f 31/36/38 40/52/38 32/37/38
f 33/38/39 40/52/39 41/53/39
f 33/38/40 42/45/40 34/39/40
f 38/50/41 48/54/41 39/51/41
f 39/51/42 49/55/42 40/52/42
f 40/52/43 50/56/43 41/53/43
f 41/53/44 51/57/44 42/45/44
f 43/46/45 51/57/45 52/58/45
f 44/47/46 52/58/46 53/59/46
f 37/49/47 45/60/47 46/61/47
f 37/49/48 47/62/48 38/50/48
f 52/58/49 59/63/49 60/64/49
f 53/59/50 60/64/50 61/65/50
f 46/61/51 45/66/51 54/67/51
f 46/61/52 55/68/52 47/62/52
f 47/62/53 56/69/53 48/54/53
f 48/54/54 57/70/54 49/55/54
f 50/56/55 57/70/55 58/71/55
f 50/56/56 59/63/56 51/57/56
f 56/69/57 65/72/57 57/70/57
f 57/70/58 66/73/58 58/71/58
f 58/71/59 67/74/59 59/63/59
f 60/64/60 67/74/60 68/75/60
f 61/65/61 68/75/61 69/76/61
f 54/67/62 45/77/62 62/78/62
f 54/67/63 63/79/63 55/68/63
f 55/68/64 64/80/64 56/69/64
f 68/75/65 77/81/65 69/76/65
f 62/78/66 45/82/66 70/83/66
f 62/78/67 71/84/67 63/79/67
f 63/79/68 72/85/68 64/80/68
f 64/80/69 73/86/69 65/72/69
f 66/73/70 73/86/70 74/87/70
f 66/73/71 75/88/71 67/74/71
f 68/75/72 75/88/72 76/89/72
f 74/87/73 81/90/73 82/91/73
f 74/87/74 83/92/74 75/88/74
f 76/89/75 83/92/75 84/93/75
f 77/81/76 84/93/76 85/94/76
f 70/83/77 45/95/77 78/96/77
f 70/83/78 79/97/78 71/84/78
f 72/85/79 79/97/79 80/98/79
f 72/85/80 81/90/80 73/86/80
f 78/96/81 45/99/81 86/100/81
f 79/97/82 86/100/82 87/101/82
f 79/97/83 88/102/83 80/98/83
f 80/98/84 89/103/84 81/90/84
f 82/91/85 89/103/85 90/104/85
f 82/91/86 91/105/86 83/92/86
f 84/93/87 91/105/87 92/106/87
f 85/94/88 92/106/88 93/107/88
f 90/104/89 97/108/89 98/109/89
f 90/104/90 99/110/90 91/105/90
f 92/106/91 99/110/91 100/111/91
f 93/107/92 100/111/92 101/112/92
f 86/100/93 45/113/93 94/114/93
f 86/100/94 95/115/94 87/101/94
f 87/101/95 96/116/95 88/102/95
f 88/102/96 97/108/96 89/103/96
f 95/115/97 102/117/97 103/118/97
f 96/116/98 103/118/98 104/119/98
f 96/116/99 105/120/99 97/108/99
f 98/109/100 105/120/100 106/121/100
f 98/109/101 107/122/101 99/110/101
f 100/111/102 107/122/102 108/123/102
f 101/112/103 108/123/103 109/124/103
f 94/114/104 45/125/104 102/117/104
f 106/121/105 115/126/105 107/122/105
f 108/123/106 115/126/106 116/127/106
f 109/124/107 116/127/107 117/128/107
f 102/117/108 45/129/108 110/130/108
f 102/117/109 111/131/109 103/118/109
f 103/118/110 112/132/110 104/119/110
f 104/119/111 113/133/111 105/120/111
f 106/121/112 113/133/112 114/134/112
f 110/130/113 119/135/113 111/131/113
f 111/131/114 120/136/114 112/132/114
f 112/132/115 121/137/115 113/133/115
f 114/134/116 121/137/116 122/138/116
f 114/134/117 123/139/117 115/126/117
f 116/127/118 123/139/118 124/140/118
f 117/128/119 124/140/119 125/141/119
f 110/130/120 45/142/120 118/143/120
f 122/138/121 131/144/121 123/139/121
f 124/140/122 131/144/122 132/145/122
f 125/141/123 132/145/123 133/146/123
f 118/143/124 45/147/124 126/148/124
f 118/143/125 127/149/125 119/135/125
f 120/136/126 127/149/126 128/150/126
f 120/136/127 129/151/127 121/137/127
f 122/138/128 129/151/128 130/152/128
f 128/150/129 135/153/129 136/154/129
f 128/150/130 137/155/130 129/151/130
f 130/152/131 137/155/131 138/156/131
f 130/152/132 139/157/132 131/144/132
f 132/145/133 139/157/133 140/158/133
f 133/146/134 140/158/134 141/159/134
f 126/148/135 45/160/135 134/161/135
f 126/148/136 135/153/136 127/149/136
f 140/158/137 147/162/137 148/163/137
f 141/159/138 148/163/138 149/164/138
f 134/161/139 45/165/139 142/166/139
f 134/161/140 143/167/140 135/153/140
f 135/153/141 144/168/141 136/154/141
f 136/154/142 145/169/142 137/155/142
f 138/156/143 145/169/143 146/170/143
f 138/156/144 147/162/144 139/157/144
f 144/168/145 153/171/145 145/169/145
f 146/170/146 153/171/146 154/172/146
f 146/170/147 155/173/147 147/162/147
f 148/163/148 155/173/148 156/174/148
f 149/164/149 156/174/149 157/175/149
f 142/166/150 45/176/150 150/177/150
f 142/166/151 151/178/151 143/167/151
f 144/168/152 151/178/152 152/179/152
f 157/175/153 164/180/153 165/181/153
f 150/177/154 45/182/154 158/183/154
f 150/177/155 159/184/155 151/178/155
f 151/178/156 160/185/156 152/179/156
f 152/179/157 161/186/157 153/171/157
f 154/172/158 161/186/158 162/187/158
f 154/172/159 163/188/159 155/173/159
f 156/174/160 163/188/160 164/180/160
f 160/185/161 169/189/161 161/186/161
f 162/187/162 169/189/162 170/190/162
f 162/187/163 171/191/163 163/188/163
f 164/180/164 171/191/164 172/192/164
f 165/181/165 172/192/165 173/193/165
f 158/183/166 45/194/166 166/195/166
f 159/184/167 166/195/167 167/196/167
f 160/185/168 167/196/168 168/197/168
f 173/193/169 180/198/169 181/199/169
f 166/195/170 45/200/170 174/201/170
f 166/195/171 175/202/171 167/196/171
f 167/196/172 176/203/172 168/197/172
f 168/197/173 177/204/173 169/189/173
f 170/190/174 177/204/174 178/205/174
f 170/190/175 179/206/175 171/191/175
f 172/192/176 179/206/176 180/198/176
f 178/205/177 185/207/177 186/208/177
f 178/205/178 187/209/178 179/206/178
f 180/198/179 187/209/179 188/210/179
f 181/199/180 188/210/180 189/211/180
f 174/201/181 45/212/181 182/213/181
f 174/201/182 183/214/182 175/202/182
f 176/203/183 183/214/183 184/215/183
f 176/203/184 185/207/184 177/204/184
f 182/213/185 45/216/185 190/217/185
f 183/214/186 190/217/186 191/218/186
f 183/214/187 192/219/187 184/215/187
f 184/215/188 193/220/188 185/207/188
f 186/208/189 193/220/189 194/221/189
f 186/208/190 195/222/190 187/209/190
f 188/210/191 195/222/191 196/223/191
f 189/211/192 196/223/192 197/224/192
f 194/225/193 201/226/193 202/227/193
f 194/225/194 203/228/194 195/229/194
f 196/230/195 203/228/195 204/231/195
f 197/232/196 204/231/196 205/233/196
f 190/234/197 45/235/197 198/236/197
f 191/237/198 198/236/198 199/238/198
f 192/239/199 199/238/199 200/240/199
f 192/239/200 201/226/200 193/241/200
f 199/238/201 206/242/201 207/243/201
f 199/238/202 208/244/202 200/240/202
f 200/240/203 209/245/203 201/226/203
f 202/227/204 209/245/204 210/246/204
f 202/227/205 211/247/205 203/228/205
f 204/231/206 211/247/206 212/248/206
f 205/233/207 212/248/207 213/249/207
f 198/236/208 45/250/208 206/242/208
f 210/246/209 219/251/209 211/247/209
f 212/248/210 219/251/210 220/252/210
f 213/249/211 220/252/211 221/253/211
f 206/242/212 45/254/212 214/255/212
f 206/242/213 215/256/213 207/243/213
f 208/244/214 215/256/214 216/257/214
f 208/244/215 217/258/215 209/245/215
f 209/245/216 218/259/216 210/246/216
f 216/257/217 223/260/217 224/261/217
f 216/257/218 225/262/218 217/258/218
f 218/259/219 225/262/219 226/263/219
f 218/259/220 227/264/220 219/251/220
f 220/252/221 227/264/221 228/265/221
f 221/253/222 228/265/222 229/266/222
f 214/255/223 45/267/223 222/268/223
f 214/255/224 223/260/224 215/256/224
f 228/265/225 235/269/225 236/270/225
f 229/266/226 236/270/226 237/271/226
f 222/268/227 45/272/227 230/273/227
f 222/268/228 231/274/228 223/260/228
f 224/261/229 231/274/229 232/275/229
f 224/261/230 233/276/230 225/262/230
f 226/263/231 233/276/231 234/277/231
f 226/263/232 235/269/232 227/264/232
f 232/275/233 239/278/233 240/279/233
f 232/275/234 241/280/234 233/276/234
f 234/277/235 241/280/235 242/281/235
f 234/277/236 243/282/236 235/269/236
f 236/270/237 243/282/237 244/283/237
f 237/271/238 244/283/238 245/284/238
f 230/273/239 45/285/239 238/286/239
f 230/273/240 239/278/240 231/274/240
f 244/283/241 251/287/241 252/288/241
f 245/284/242 252/288/242 253/289/242
f 238/286/243 45/290/243 246/291/243
f 238/286/244 247/292/244 239/278/244
f 239/278/245 248/293/245 240/279/245
f 240/279/246 249/294/246 241/280/246
f 242/281/247 249/294/247 250/295/247
f 242/281/248 251/287/248 243/282/248
f 249/294/249 1/1/249 256/4/249
f 250/295/250 256/4/250 2/7/250
f 251/287/251 2/7/251 257/8/251
f 252/288/252 257/8/252 3/10/252
f 253/289/253 3/10/253 4/13/253
f 246/291/254 45/296/254 254/14/254
f 246/291/255 255/17/255 247/292/255
f 133/146/256 197/224/256 4/13/256
f 248/293/257 255/17/257 1/1/257
f 1/1/1 255/17/1 6/2/1
f 256/4/2 1/1/2 7/3/2
f 256/4/3 8/5/3 9/6/3
f 257/8/4 2/7/4 9/6/4
f 3/10/5 257/8/5 10/9/5
f 3/10/6 11/11/6 12/12/6
f 255/17/8 254/14/8 5/16/8
f 5/16/9 13/26/9 14/18/9
f 6/2/10 14/18/10 15/19/10
f 7/3/11 15/19/11 16/20/11
f 8/5/12 16/20/12 17/21/12
f 9/6/13 17/21/13 18/22/13
f 11/11/14 10/9/14 18/22/14
f 12/12/15 11/11/15 19/23/15
f 17/21/17 25/35/17 26/27/17
f 18/22/18 26/27/18 27/28/18
f 20/24/19 19/23/19 27/28/19
f 13/26/21 21/31/21 22/32/21
f 14/18/22 22/32/22 23/33/22
f 15/19/23 23/33/23 24/34/23
f 16/20/24 24/34/24 25/35/24
f 22/32/25 30/44/25 31/36/25
f 23/33/26 31/36/26 32/37/26
f 24/34/27 32/37/27 33/38/27
f 25/35/28 33/38/28 34/39/28
f 26/27/29 34/39/29 35/40/29
f 28/29/30 27/28/30 35/40/30
f 21/31/32 29/43/32 30/44/32
f 35/40/33 34/39/33 42/45/33
f 36/41/34 35/40/34 43/46/34
f 29/43/36 37/49/36 38/50/36
f 30/44/37 38/50/37 39/51/37
f 31/36/38 39/51/38 40/52/38
f 33/38/39 32/37/39 40/52/39
f 33/38/40 41/53/40 42/45/40
f 38/50/41 47/62/41 48/54/41
f 39/51/42 48/54/42 49/55/42
f 40/52/43 49/55/43 50/56/43
f 41/53/44 50/56/44 51/57/44
f 43/46/45 42/45/45 51/57/45
f 44/47/46 43/46/46 52/58/46
f 37/49/48 46/61/48 47/62/48
f 52/58/49 51/57/49 59/63/49
f 53/59/50 52/58/50 60/64/50
f 46/61/52 54/67/52 55/68/52
f 47/62/53 55/68/53 56/69/53
f 48/54/54 56/69/54 57/70/54
f 50/56/55 49/55/55 57/70/55
f 50/56/56 58/71/56 59/63/56
f 56/69/57 64/80/57 65/72/57
f 57/70/58 65/72/58 66/73/58
f 58/71/59 66/73/59 67/74/59
f 60/64/60 59/63/60 67/74/60
f 61/65/61 60/64/61 68/75/61
f 54/67/63 62/78/63 63/79/63
f 55/68/64 63/79/64 64/80/64
f 68/75/65 76/89/65 77/81/65
f 62/78/67 70/83/67 71/84/67
f 63/79/68 71/84/68 72/85/68
f 64/80/69 72/85/69 73/86/69
f 66/73/70 65/72/70 73/86/70
f 66/73/71 74/87/71 75/88/71
f 68/75/72 67/74/72 75/88/72
f 74/87/73 73/86/73 81/90/73
f 74/87/74 82/91/74 83/92/74
f 76/89/75 75/88/75 83/92/75
f 77/81/76 76/89/76 84/93/76
f 70/83/78 78/96/78 79/97/78
f 72/85/79 71/84/79 79/97/79
f 72/85/80 80/98/80 81/90/80
f 79/97/82 78/96/82 86/100/82
f 79/97/83 87/101/83 88/102/83
f 80/98/84 88/102/84 89/103/84
f 82/91/85 81/90/85 89/103/85
f 82/91/86 90/104/86 91/105/86
f 84/93/87 83/92/87 91/105/87
f 85/94/88 84/93/88 92/106/88
f 90/104/89 89/103/89 97/108/89
f 90/104/90 98/109/90 99/110/90
f 92/106/91 91/105/91 99/110/91
f 93/107/92 92/106/92 100/111/92
f 86/100/94 94/114/94 95/115/94
f 87/101/95 95/115/95 96/116/95
f 88/102/96 96/116/96 97/108/96
f 95/115/97 94/114/97 102/117/97
f 96/116/98 95/115/98 103/118/98
f 96/116/99 104/119/99 105/120/99
f 98/109/100 97/108/100 105/120/100
f 98/109/101 106/121/101 107/122/101
f 100/111/102 99/110/102 107/122/102
f 101/112/103 100/111/103 108/123/103
f 106/121/105 114/134/105 115/126/105
f 108/123/106 107/122/106 115/126/106
f 109/124/107 108/123/107 116/127/107
f 102/117/109 110/130/109 111/131/109
f 103/118/258 111/131/258 112/132/258
f 104/119/111 112/132/111 113/133/111
f 106/121/112 105/120/112 113/133/112
f 110/130/113 118/143/113 119/135/113
f 111/131/114 119/135/114 120/136/114
f 112/132/115 120/136/115 121/137/115
f 114/134/116 113/133/116 121/137/116
f 114/134/117 122/138/117 123/139/117
f 116/127/118 115/126/118 123/139/118
f 117/128/119 116/127/119 124/140/119
f 122/138/121 130/152/121 131/144/121
f 124/140/122 123/139/122 131/144/122
f 125/141/123 124/140/123 132/145/123
f 118/143/125 126/148/125 127/149/125
f 120/136/126 119/135/126 127/149/126
f 120/136/127 128/150/127 129/151/127
f 122/138/128 121/137/128 129/151/128
f 128/150/129 127/149/129 135/153/129
f 128/150/130 136/154/130 137/155/130
f 130/152/131 129/151/131 137/155/131
f 130/152/132 138/156/132 139/157/132
f 132/145/133 131/144/133 139/157/133
f 133/146/134 132/145/134 140/158/134
f 126/148/136 134/161/136 135/153/136
f 140/158/137 139/157/137 147/162/137
f 141/159/138 140/158/138 148/163/138
f 134/161/140 142/166/140 143/167/140
f 135/153/141 143/167/141 144/168/141
f 136/154/142 144/168/142 145/169/142
f 138/156/143 137/155/143 145/169/143
f 138/156/144 146/170/144 147/162/144
f 144/168/145 152/179/145 153/171/145
f 146/170/146 145/169/146 153/171/146
f 146/170/147 154/172/147 155/173/147
f 148/163/148 147/162/148 155/173/148
f 149/164/149 148/163/149 156/174/149
f 142/166/151 150/177/151 151/178/151
f 144/168/259 143/167/259 151/178/259
f 157/175/153 156/174/153 164/180/153
f 150/177/155 158/183/155 159/184/155
f 151/178/156 159/184/156 160/185/156
f 152/179/157 160/185/157 161/186/157
f 154/172/158 153/171/158 161/186/158
f 154/172/159 162/187/159 163/188/159
f 156/174/160 155/173/160 163/188/160
f 160/185/161 168/197/161 169/189/161
f 162/187/162 161/186/162 169/189/162
f 162/187/163 170/190/163 171/191/163
f 164/180/164 163/188/164 171/191/164
f 165/181/165 164/180/165 172/192/165
f 159/184/260 158/183/260 166/195/260
f 160/185/168 159/184/168 167/196/168
f 173/193/169 172/192/169 180/198/169
f 166/195/171 174/201/171 175/202/171
f 167/196/172 175/202/172 176/203/172
f 168/197/173 176/203/173 177/204/173
f 170/190/174 169/189/174 177/204/174
f 170/190/175 178/205/175 179/206/175
f 172/192/176 171/191/176 179/206/176
f 178/205/177 177/204/177 185/207/177
f 178/205/178 186/208/178 187/209/178
f 180/198/179 179/206/179 187/209/179
f 181/199/180 180/198/180 188/210/180
f 174/201/182 182/213/182 183/214/182
f 176/203/183 175/202/183 183/214/183
f 176/203/184 184/215/184 185/207/184
f 183/214/186 182/213/186 190/217/186
f 183/214/187 191/218/187 192/219/187
f 184/215/188 192/219/188 193/220/188
f 186/208/189 185/207/189 193/220/189
f 186/208/190 194/221/190 195/222/190
f 188/210/191 187/209/191 195/222/191
f 189/211/192 188/210/192 196/223/192
f 194/225/193 193/241/193 201/226/193
f 194/225/194 202/227/194 203/228/194
f 196/230/195 195/229/195 203/228/195
f 197/232/196 196/230/196 204/231/196
f 191/237/198 190/234/198 198/236/198
f 192/239/199 191/237/199 199/238/199
f 192/239/200 200/240/200 201/226/200
f 199/238/201 198/236/201 206/242/201
f 199/238/202 207/243/202 208/244/202
f 200/240/203 208/244/203 209/245/203
f 202/227/204 201/226/204 209/245/204
f 202/227/205 210/246/205 211/247/205
f 204/231/206 203/228/206 211/247/206
f 205/233/207 204/231/207 212/248/207
f 210/246/209 218/259/209 219/251/209
f 212/248/210 211/247/210 219/251/210
f 213/249/211 212/248/211 220/252/211
f 206/242/213 214/255/213 215/256/213
f 208/244/214 207/243/214 215/256/214
f 208/244/215 216/257/215 217/258/215
f 209/245/216 217/258/216 218/259/216
f 216/257/217 215/256/217 223/260/217
f 216/257/218 224/261/218 225/262/218
f 218/259/219 217/258/219 225/262/219
f 218/259/220 226/263/220 227/264/220
f 220/252/221 219/251/221 227/264/221
f 221/253/222 220/252/222 228/265/222
f 214/255/224 222/268/224 223/260/224
f 228/265/225 227/264/225 235/269/225
f 229/266/261 228/265/261 236/270/261
f 222/268/228 230/273/228 231/274/228
f 224/261/229 223/260/229 231/274/229
f 224/261/230 232/275/230 233/276/230
f 226/263/231 225/262/231 233/276/231
f 226/263/232 234/277/232 235/269/232
f 232/275/262 231/274/262 239/278/262
f 232/275/234 240/279/234 241/280/234
f 234/277/235 233/276/235 241/280/235
f 234/277/236 242/281/236 243/282/236
f 236/270/237 235/269/237 243/282/237
f 237/271/238 236/270/238 244/283/238
f 230/273/240 238/286/240 239/278/240
f 244/283/241 243/282/241 251/287/241
f 245/284/242 244/283/242 252/288/242
f 238/286/244 246/291/244 247/292/244
f 239/278/245 247/292/245 248/293/245
f 240/279/246 248/293/246 249/294/246
f 242/281/247 241/280/247 249/294/247
f 242/281/248 250/295/248 251/287/248
f 249/294/249 248/293/249 1/1/249
f 250/295/250 249/294/250 256/4/250
f 251/287/251 250/295/251 2/7/251
f 252/288/252 251/287/252 257/8/252
f 253/289/253 252/288/253 3/10/253
f 246/291/255 254/14/255 255/17/255
f 4/13/256 12/12/256 20/24/256
f 20/24/256 28/29/256 36/41/256
f 36/41/256 44/47/256 53/59/256
f 53/59/256 61/65/256 69/76/256
f 69/76/256 77/81/256 85/94/256
f 85/94/256 93/107/256 101/112/256
f 101/112/256 109/124/256 117/128/256
f 117/128/256 125/141/256 133/146/256
f 133/146/256 141/159/256 149/164/256
f 149/164/256 157/175/256 165/181/256
f 165/181/256 173/193/256 181/199/256
f 181/199/256 189/211/256 197/224/256
f 197/224/256 205/233/256 213/249/256
f 213/249/256 221/253/256 229/266/256
f 229/266/256 237/271/256 245/284/256
f 245/284/256 253/289/256 4/13/256
f 4/13/256 20/24/256 36/41/256
f 36/41/256 53/59/256 69/76/256
f 69/76/256 85/94/256 101/112/256
f 101/112/256 117/128/256 133/146/256
f 133/146/256 149/164/256 165/181/256
f 165/181/256 181/199/256 197/224/256
f 197/224/256 213/249/256 229/266/256
f 229/266/256 245/284/256 4/13/256
f 4/13/256 36/41/256 69/76/256
f 69/76/256 101/112/256 133/146/256
f 133/146/256 165/181/256 197/224/256
f 197/224/256 229/266/256 4/13/256
f 4/13/256 69/76/256 133/146/256
f 248/293/257 247/292/257 255/17/257
