# Blender 4.2.1 LTS
# www.blender.org
mtllib playerBody.mtl
o 立方体
v 0.494281 0.525418 -0.494281
v 0.675741 2.081892 -0.675178
v 0.494281 0.525418 0.494281
v 0.681233 2.081892 0.679985
v -0.494281 0.525418 -0.494281
v -0.675713 2.081892 -0.675178
v -0.494281 0.525418 0.494281
v -0.682495 2.081892 0.679985
v 0.000000 0.525418 0.494281
v -0.000631 2.081892 0.857913
v -0.000000 0.525418 -0.494281
v 0.000014 2.081892 -0.851505
v 0.247140 0.525418 0.494281
v 0.426041 2.081892 -0.851505
v 0.429265 2.081892 0.857913
v 0.247140 0.525418 -0.494281
v -0.430527 2.081892 0.857913
v -0.247140 0.525418 -0.494281
v -0.247140 0.525418 0.494281
v -0.426013 2.081892 -0.851505
v 0.494281 0.525418 -0.000000
v 0.859161 1.969169 -0.001879
v -0.494281 0.525418 0.000000
v -0.860423 1.969169 -0.001879
v 0.000000 0.525418 0.000000
v 0.247140 0.525418 -0.000000
v -0.247140 0.525418 0.000000
v 0.494281 0.525418 -0.236886
v -0.852040 1.969169 -0.407800
v -0.000000 0.525418 -0.236886
v 0.247140 0.525418 -0.236886
v -0.247140 0.525418 -0.236886
v 0.859161 1.969169 -0.413937
v -0.494281 0.525418 -0.236886
v 0.859161 1.969169 0.428017
v -0.494281 0.525418 0.247140
v 0.494281 0.525418 0.247140
v -0.860423 1.969169 0.428017
v 0.000000 0.525418 0.247140
v 0.247140 0.525418 0.247140
v -0.247140 0.525418 0.247140
v 0.689738 2.648861 0.344489
v 0.546894 2.536139 0.546773
v -0.345645 2.536139 0.689617
v -0.547929 2.536139 0.546774
v -0.684044 2.648861 -0.326519
v -0.542485 2.536139 -0.541174
v 0.342022 2.536139 -0.682733
v 0.542485 2.536139 -0.541174
v 0.344610 2.536139 0.689617
v -0.000518 2.536139 0.689617
v -0.342022 2.536139 -0.682732
v -0.000000 2.536139 -0.682733
v -0.000518 2.536139 -0.331446
v 0.344610 2.536139 -0.331446
v -0.342022 2.536139 -0.326519
v 0.689738 2.648861 -0.331446
v 0.689738 2.648861 -0.000638
v -0.690773 2.648861 0.344490
v -0.690773 2.648861 -0.000638
v -0.000518 2.536139 0.344489
v -0.000518 2.536139 -0.000638
v 0.344610 2.536139 0.344489
v 0.344610 2.536139 -0.000638
v -0.345645 2.536139 0.344490
v -0.345646 2.536139 -0.000638
v -1.082403 2.024579 0.425725
v -1.082403 2.024579 -0.004171
v -1.074021 2.024579 -0.410092
v -0.912754 2.704271 -0.002930
v -0.912754 2.704271 0.342198
v -0.906024 2.704271 -0.328811
v 1.081417 2.024570 -0.413937
v 1.081417 2.024570 -0.001879
v 0.911994 2.704262 0.344489
v 1.081417 2.024570 0.428017
v 0.911994 2.704262 -0.000638
v 0.911994 2.704262 -0.331446
vn 0.9695 -0.2450 -0.0000
vn -0.0000 -0.2275 0.9738
vn -0.9706 -0.2405 -0.0000
vn -0.0000 -0.2237 -0.9747
vn -0.0000 -1.0000 -0.0000
vn 0.0190 0.1173 0.9929
vn -0.5336 0.3797 0.7557
vn -0.7154 0.2583 0.6492
vn 0.7202 0.2577 -0.6442
vn 0.5337 0.3795 -0.7558
vn 0.2421 0.9702 0.0050
vn 0.8290 0.3685 0.4206
vn 0.2419 -0.9703 -0.0000
vn -0.9693 -0.2458 -0.0000
vn -0.5337 0.3795 -0.7558
vn -0.8406 0.3647 -0.4006
vn -0.0000 0.3483 -0.9374
vn -0.2419 0.9703 -0.0000
vn 0.5337 0.3795 0.7558
vn -0.0000 0.3474 0.9377
vn -0.0000 1.0000 -0.0000
vn 0.3004 0.9116 -0.2806
vn 0.3105 0.9506 -0.0000
vn -0.3105 0.9506 -0.0000
vn 0.3105 0.9506 0.0064
vn 0.2965 0.9078 0.2965
vn -0.9700 0.2422 -0.0200
vn -0.9702 0.2422 -0.0000
vn -0.2421 -0.9702 -0.0050
vn 0.2422 0.9702 -0.0000
vn -0.2422 -0.9702 -0.0000
vn 0.0376 0.1095 -0.9933
vn 0.9703 0.2419 -0.0000
vn -0.0286 0.1149 0.9930
vn -0.0283 0.1135 -0.9931
vn 0.7690 -0.1660 0.6173
vn -0.5689 -0.1649 0.8057
vn -0.7914 -0.1608 -0.5897
vn 0.5694 -0.1601 -0.8063
vn 0.5690 -0.1645 0.8057
vn -0.8290 0.3689 0.4204
vn -0.5694 -0.1601 -0.8063
vn 0.8282 0.3677 -0.4229
vn 0.7155 0.2581 0.6491
vn 0.7736 -0.1614 -0.6128
vn -0.7392 0.2571 -0.6225
vn -0.9699 -0.2427 -0.0200
vn -0.7688 -0.1666 0.6174
vn -0.2980 0.9123 -0.2811
vn 0.3130 0.9497 0.0035
vn -0.2965 0.9078 0.2965
vt 0.638396 0.232632
vt 0.342805 0.184527
vt 0.350443 0.142459
vt 0.537889 0.473823
vt 0.255378 0.368376
vt 0.275806 0.320925
vt 0.387578 0.656457
vt 0.149551 0.513968
vt 0.175819 0.476437
vt 0.236029 0.870065
vt 0.000096 0.654582
vt 0.037897 0.617340
vt 0.112015 0.488046
vt 0.139483 0.449589
vt 0.980744 0.349183
vt 0.927966 0.327264
vt 0.926201 0.305864
vt 0.821984 0.725823
vt 0.846994 0.775523
vt 0.808185 0.747177
vt 0.102573 0.422673
vt 0.037338 0.434381
vt 0.065490 0.395640
vt 0.110794 0.548396
vt 0.292041 0.811414
vt 0.074296 0.582760
vt 0.318679 0.231019
vt 0.576765 0.411229
vt 0.297080 0.275955
vt 0.608829 0.343363
vt 0.000096 0.407288
vt 0.028325 0.368517
vt 0.786461 0.762143
vt 0.827503 0.794740
vt 0.339521 0.751271
vt 0.892758 0.601744
vt 0.961446 0.578832
vt 0.969728 0.605115
vt 0.074630 0.461359
vt 0.192354 0.377067
vt 0.128461 0.387134
vt 0.155582 0.350155
vt 0.673368 0.920907
vt 0.698432 0.973948
vt 0.652421 0.943604
vt 0.965422 0.388520
vt 0.931961 0.388980
vt 0.945985 0.374527
vt 0.118670 0.323028
vt 0.054390 0.332877
vt 0.081672 0.295789
vt 0.091475 0.360059
vt 0.871467 0.607076
vt 0.910829 0.659420
vt 0.868562 0.637242
vt 0.736919 0.468982
vt 0.768991 0.423205
vt 0.760104 0.456747
vt 0.229043 0.403400
vt 0.165310 0.414065
vt 0.410252 0.591852
vt 0.202009 0.440802
vt 0.368655 0.045123
vt 0.647983 0.151036
vt 0.359540 0.092861
vt 0.377003 0.000096
vt 0.681641 0.070665
vt 0.724320 0.862420
vt 0.779990 0.869339
vt 0.762642 0.891860
vt 0.747980 0.815740
vt 0.740173 0.842118
vt 0.700944 0.892031
vt 0.739655 0.922835
vt 0.866762 0.465146
vt 0.862085 0.540945
vt 0.828072 0.513957
vt 0.465737 0.547594
vt 0.219428 0.340883
vt 0.856910 0.661593
vt 0.898682 0.683601
vt 0.714544 0.951199
vt 0.182806 0.313470
vt 0.145933 0.286138
vt 0.108977 0.258833
vt 0.841124 0.695006
vt 0.862490 0.751271
vt 0.882877 0.718057
vt 0.884081 0.932551
vt 0.885373 0.972996
vt 0.851164 0.969060
vt 0.848435 0.902254
vt 0.782770 0.903070
vt 0.816882 0.872444
vt 0.815923 0.936501
vt 0.792470 0.844386
vt 0.863387 0.808459
vt 0.815973 0.824341
vt 0.941520 0.857609
vt 0.876032 0.869026
vt 0.901731 0.831090
vt 0.842820 0.844248
vt 0.983319 0.888592
vt 0.912821 0.896778
vt 0.953144 0.927793
vt 0.981782 0.849304
vt 0.968586 0.815805
vt 0.925836 0.789253
vt 0.881150 0.766976
vt 0.909304 0.348412
vt 0.896080 0.371888
vt 0.955574 0.355615
vt 0.889899 0.334821
vt 0.875064 0.377091
vt 0.934187 0.415159
vt 0.828665 0.495581
vt 0.862356 0.406349
vt 0.848069 0.451334
vt 0.906862 0.413050
vt 0.900951 0.491811
vt 0.765213 0.363010
vt 0.743192 0.415596
vt 0.814601 0.518043
vt 0.867501 0.367490
vt 0.784038 0.389254
vt 0.632496 0.293903
vt 0.509862 0.517196
vt 0.371720 0.710035
vt 0.193484 0.916167
vt 0.909160 0.568826
vt 0.929922 0.643995
vt 0.714955 0.003805
vt 0.924030 0.964523
vt 0.941343 0.439858
s 0
usemtl マテリアル.001
f 35/1/1 3/2/1 37/3/1
f 17/4/2 7/5/2 19/6/2
f 29/7/3 5/8/3 34/9/3
f 14/10/4 1/11/4 16/12/4
f 34/9/5 18/13/5 32/14/5
f 59/15/6 67/16/6 38/17/6
f 17/18/7 45/19/7 8/20/7
f 30/21/5 16/22/5 31/23/5
f 18/24/4 12/25/4 11/26/4
f 13/27/2 10/28/2 9/29/2
f 3/2/2 15/30/2 13/27/2
f 31/23/5 1/31/5 28/32/5
f 38/33/8 45/19/8 59/34/8
f 12/25/4 16/12/4 11/26/4
f 5/8/4 20/35/4 18/24/4
f 33/36/9 49/37/9 57/38/9
f 32/14/5 11/39/5 30/21/5
f 10/28/2 19/6/2 9/29/2
f 41/40/5 25/41/5 39/42/5
f 14/43/10 49/44/10 2/45/10
f 60/46/11 72/47/11 70/48/11
f 40/49/5 21/50/5 37/51/5
f 39/42/5 26/52/5 40/49/5
f 35/53/12 43/54/12 4/55/12
f 35/56/13 74/57/13 76/58/13
f 36/59/5 27/60/5 41/40/5
f 36/59/14 24/61/14 23/62/14
f 28/63/1 22/64/1 21/65/1
f 1/66/1 33/67/1 28/63/1
f 27/60/5 30/21/5 25/41/5
f 20/68/15 47/69/15 52/70/15
f 29/71/16 47/69/16 6/72/16
f 26/52/5 28/32/5 21/50/5
f 25/41/5 31/23/5 26/52/5
f 12/73/17 52/70/17 53/74/17
f 58/75/18 78/76/18 57/77/18
f 23/62/5 32/14/5 27/60/5
f 24/61/14 34/9/14 23/62/14
f 7/5/14 38/78/14 36/59/14
f 7/5/5 41/40/5 19/79/5
f 15/80/19 43/54/19 50/81/19
f 12/73/17 48/82/17 14/43/17
f 9/83/5 40/49/5 13/84/5
f 13/84/5 37/51/5 3/85/5
f 10/86/20 44/87/20 17/18/20
f 10/86/20 50/81/20 51/88/20
f 19/79/5 39/42/5 9/83/5
f 22/64/1 37/3/1 21/65/1
f 55/89/21 49/90/21 48/91/21
f 54/92/21 52/93/21 56/94/21
f 54/92/21 48/91/21 53/95/21
f 56/94/22 47/69/22 46/96/22
f 65/97/23 60/98/23 59/34/23
f 63/99/21 62/100/21 61/101/21
f 61/101/21 66/102/21 65/97/21
f 42/103/24 64/104/24 63/99/24
f 66/102/25 46/96/25 60/98/25
f 64/104/21 54/92/21 62/100/21
f 62/100/21 56/94/21 66/102/21
f 58/105/24 55/89/24 64/104/24
f 43/106/21 63/99/21 50/107/21
f 51/108/21 65/97/21 44/109/21
f 50/107/21 61/101/21 51/108/21
f 45/19/26 65/97/26 59/34/26
f 68/110/27 72/47/27 69/111/27
f 68/110/28 71/112/28 70/48/28
f 24/113/29 69/111/29 29/114/29
f 60/46/30 71/112/30 59/15/30
f 24/113/31 67/16/31 68/110/31
f 46/115/32 69/111/32 72/47/32
f 74/57/33 75/116/33 76/58/33
f 74/57/33 78/117/33 77/118/33
f 42/119/18 77/120/18 58/75/18
f 33/121/13 74/57/13 22/122/13
f 35/56/34 75/116/34 42/123/34
f 57/124/35 73/125/35 33/121/35
f 35/1/36 4/126/36 3/2/36
f 17/4/37 8/127/37 7/5/37
f 29/7/38 6/128/38 5/8/38
f 14/10/39 2/129/39 1/11/39
f 34/9/5 5/8/5 18/13/5
f 59/15/6 71/112/6 67/16/6
f 17/18/7 44/87/7 45/19/7
f 30/21/5 11/39/5 16/22/5
f 18/24/4 20/35/4 12/25/4
f 13/27/2 15/30/2 10/28/2
f 3/2/40 4/126/40 15/30/40
f 31/23/5 16/22/5 1/31/5
f 38/33/41 8/20/41 45/19/41
f 12/25/4 14/10/4 16/12/4
f 5/8/42 6/128/42 20/35/42
f 33/36/43 2/130/43 49/37/43
f 32/14/5 18/13/5 11/39/5
f 10/28/2 17/4/2 19/6/2
f 41/40/5 27/60/5 25/41/5
f 14/43/10 48/82/10 49/44/10
f 60/46/11 46/115/11 72/47/11
f 40/49/5 26/52/5 21/50/5
f 39/42/5 25/41/5 26/52/5
f 35/53/44 42/131/44 43/54/44
f 35/56/13 22/122/13 74/57/13
f 36/59/5 23/62/5 27/60/5
f 36/59/14 38/78/14 24/61/14
f 28/63/1 33/67/1 22/64/1
f 1/66/45 2/132/45 33/67/45
f 27/60/5 32/14/5 30/21/5
f 20/68/15 6/72/15 47/69/15
f 29/71/46 46/96/46 47/69/46
f 26/52/5 31/23/5 28/32/5
f 25/41/5 30/21/5 31/23/5
f 12/73/17 20/68/17 52/70/17
f 58/75/18 77/120/18 78/76/18
f 23/62/5 34/9/5 32/14/5
f 24/61/47 29/7/47 34/9/47
f 7/5/48 8/127/48 38/78/48
f 7/5/5 36/59/5 41/40/5
f 15/80/19 4/55/19 43/54/19
f 12/73/17 53/74/17 48/82/17
f 9/83/5 39/42/5 40/49/5
f 13/84/5 40/49/5 37/51/5
f 10/86/20 51/88/20 44/87/20
f 10/86/20 15/80/20 50/81/20
f 19/79/5 41/40/5 39/42/5
f 22/64/1 35/1/1 37/3/1
f 55/89/49 57/133/49 49/90/49
f 54/92/21 53/95/21 52/93/21
f 54/92/21 55/89/21 48/91/21
f 56/94/21 52/93/21 47/69/21
f 65/97/23 66/102/23 60/98/23
f 63/99/21 64/104/21 62/100/21
f 61/101/21 62/100/21 66/102/21
f 42/103/24 58/105/24 64/104/24
f 66/102/50 56/94/50 46/96/50
f 64/104/21 55/89/21 54/92/21
f 62/100/21 54/92/21 56/94/21
f 58/105/24 57/133/24 55/89/24
f 43/106/51 42/103/51 63/99/51
f 51/108/21 61/101/21 65/97/21
f 50/107/21 63/99/21 61/101/21
f 45/19/21 44/109/21 65/97/21
f 68/110/27 70/48/27 72/47/27
f 68/110/28 67/16/28 71/112/28
f 24/113/29 68/110/29 69/111/29
f 60/46/30 70/48/30 71/112/30
f 24/113/31 38/17/31 67/16/31
f 46/115/32 29/114/32 69/111/32
f 74/57/33 77/118/33 75/116/33
f 74/57/33 73/125/33 78/117/33
f 42/119/18 75/134/18 77/120/18
f 33/121/13 73/125/13 74/57/13
f 35/56/34 76/58/34 75/116/34
f 57/124/35 78/117/35 73/125/35
