# Blender 4.2.0
# www.blender.org
mtllib attackEffect.mtl
o Cube
v 0.578538 -0.074052 -0.656221
v -0.578538 0.074052 0.656221
v 0.001614 -0.113182 0.014195
v -0.001614 0.113182 -0.014195
v -0.085307 0.003865 -0.075644
v 0.085307 -0.003865 0.075644
vn -0.5691 0.6884 -0.4496
vn -0.4967 -0.7296 -0.4700
vn 0.4412 -0.6721 0.5947
vn 0.4967 0.7296 0.4700
vn 0.6094 0.7152 0.3421
vn 0.5691 -0.6884 0.4496
vn -0.6094 -0.7152 -0.3421
vn -0.4412 0.6721 -0.5947
vt 0.167179 0.513952
vt 0.000163 0.486048
vt 0.167179 0.000163
vt 0.501864 0.513952
vt 0.334848 0.486048
vt 0.501864 0.000163
vt 0.334521 0.513952
vt 0.167506 0.486048
vt 0.334521 0.000163
vt 0.502191 0.486048
vt 0.669206 0.513952
vt 0.502191 0.999837
vt 0.669206 0.000163
vt 0.167506 0.999837
vt 0.334848 0.999837
vt 0.000163 0.999837
s 0
usemtl Material
f 4/1/1 5/2/1 2/3/1
f 3/4/2 5/5/2 1/6/2
f 3/7/3 6/8/3 2/9/3
f 6/10/4 4/11/4 2/12/4
f 1/13/5 4/11/5 6/10/5
f 1/14/6 6/8/6 3/7/6
f 2/15/7 5/5/7 3/4/7
f 1/16/8 5/2/8 4/1/8
