# Blender 4.1.1
# www.blender.org
mtllib enemy_arm.mtl
o 立方体
v 1.932589 0.686853 1.395236
v 1.932589 1.220984 1.395236
v 1.934664 0.688583 -1.459769
v 1.934664 1.219254 -1.459769
v 2.466720 0.686853 1.395236
v 2.466720 1.220984 1.395236
v 2.466720 0.686853 -1.470906
v 2.466720 1.220984 -1.470906
v 2.045284 0.799203 -0.035979
v 2.045284 1.108634 -0.035979
v 2.354716 0.799203 -0.035979
v 2.354716 1.108634 -0.035979
v 1.934664 1.219254 -1.080511
v 2.465336 0.688583 -1.080511
v 1.934664 0.688583 -1.080511
v 2.465336 1.219254 -1.080511
v 1.934664 0.688583 1.008554
v 2.465336 1.219254 1.008554
v 1.934664 1.219254 1.008554
v 2.465336 0.688583 1.008554
v 1.698810 0.688583 1.169599
v 2.701190 1.219254 1.169599
v 1.698810 1.219254 1.169599
v 2.701190 0.688583 1.169599
v 1.698810 1.219254 -1.241556
v 2.701190 0.688583 -1.241556
v 1.698810 0.688583 -1.241556
v 2.701190 1.219254 -1.241556
v 2.199654 0.686853 -1.470906
v 2.199654 1.220984 -1.470906
v 2.199654 0.686853 1.395236
v 2.199654 1.220984 1.395236
v 2.200000 0.688583 -1.080511
v 2.200000 1.219254 -1.080511
v 2.200000 1.219254 1.008554
v 2.200000 0.688583 1.008554
v 2.200000 1.587797 1.169599
v 2.200000 0.320040 1.169599
v 2.200000 1.587797 -1.241556
v 2.200000 0.320040 -1.241556
v 2.199654 0.953918 4.043751
v 2.198453 0.953918 -4.091307
vn -0.6791 -0.0000 -0.7340
vn 0.9948 -0.0000 -0.1018
vn 0.6934 -0.0000 0.7205
vn -0.0000 0.9950 0.1003
vn -0.0000 -0.5239 0.8518
vn -0.0000 0.5239 0.8518
vn -0.0000 0.9944 0.1053
vn 0.9944 -0.0000 0.1053
vn -0.9944 -0.0000 -0.1053
vn 0.5639 -0.0000 0.8258
vn -0.0000 -0.4004 0.9163
vn -0.0000 0.4004 0.9163
vn -0.9944 -0.0000 0.1053
vn -0.5639 -0.0000 -0.8258
vn -0.0000 -0.9944 0.1053
vn -0.0000 0.9944 -0.1053
vn 0.9944 -0.0000 -0.1053
vn -0.6945 -0.0000 0.7195
vn -0.0000 0.4004 -0.9163
vn -0.0000 -0.4004 -0.9163
vn 0.5639 -0.0000 -0.8258
vn -0.0391 0.5298 -0.8472
vn -0.0000 -0.5302 -0.8479
vn 0.6993 -0.0000 -0.7149
vn -0.5639 -0.0000 0.8258
vn -0.4989 -0.6785 -0.5392
vn 0.5081 0.6910 -0.5142
vn -0.4475 -0.6085 -0.6553
vn 0.4475 0.6085 -0.6553
vn 0.4475 0.6085 0.6553
vn -0.4475 -0.6085 0.6553
vn 0.5059 0.6879 0.5204
vn -0.5063 -0.6885 0.5193
vn -0.0000 -0.9948 -0.1014
vn 0.9950 -0.0000 0.1003
vn -0.9950 -0.0000 0.1003
vn -0.0000 -0.9950 0.1003
vn -0.0108 -0.9948 -0.1014
vn -0.0108 0.9948 -0.1014
vn -0.0000 0.9948 -0.1014
vn -0.9950 -0.0000 -0.0997
vn -0.0000 -0.9944 -0.1053
vn 0.5059 -0.6879 0.5204
vn -0.5063 0.6885 0.5193
vn 0.4475 -0.6085 0.6553
vn -0.4475 0.6085 0.6553
vn -0.4475 0.6085 -0.6553
vn 0.4475 -0.6085 -0.6553
vn -0.4989 0.6785 -0.5392
vn 0.5081 -0.6910 -0.5142
vn -0.0391 -0.5298 -0.8472
vn -0.0000 0.5302 -0.8479
vt 0.171450 0.930437
vt 0.054835 0.982435
vt 0.054905 0.930281
vt 0.152688 0.042480
vt 0.266266 0.041818
vt 0.210007 0.133049
vt 0.689040 0.546003
vt 0.770683 0.509861
vt 0.748625 0.550653
vt 0.145365 0.244621
vt 0.084578 0.280432
vt 0.087772 0.146859
vt 0.834857 0.548316
vt 0.837569 0.490699
vt 0.593889 0.562455
vt 0.522078 0.538244
vt 0.582865 0.502434
vt 0.076861 0.507659
vt 0.039371 0.470198
vt 0.140245 0.472332
vt 0.130940 0.525793
vt 0.238221 0.451062
vt 0.243380 0.516837
vt 0.427481 0.642417
vt 0.335179 0.680229
vt 0.310936 0.642261
vt 0.524360 0.933296
vt 0.608614 0.891837
vt 0.583976 0.937945
vt 0.679128 0.921474
vt 0.668949 0.867243
vt 0.438121 0.935616
vt 0.378969 0.891919
vt 0.442095 0.882659
vt 0.403136 0.680320
vt 0.310834 0.718132
vt 0.171691 0.813081
vt 0.055076 0.864917
vt 0.055146 0.812925
vt 0.303715 0.492243
vt 0.339094 0.453169
vt 0.074759 0.431136
vt 0.135097 0.406556
vt 0.247517 0.397601
vt 0.172140 0.761355
vt 0.054835 0.761198
vt 0.540026 0.612661
vt 0.604055 0.616683
vt 0.776814 0.583148
vt 0.830895 0.601268
vt 0.664394 0.592103
vt 0.371658 0.968215
vt 0.435385 0.993246
vt 0.615876 0.973459
vt 0.690173 0.981495
vt 0.502297 0.974121
vt 0.171520 0.878445
vt 0.054975 0.878289
vt 0.750850 0.946384
vt 0.794374 0.897098
vt 0.894012 0.591989
vt 0.950734 0.558980
vt 0.496175 0.900793
vt 0.732986 0.871246
vt 0.657152 0.510514
vt 0.901509 0.516382
vt 0.219652 0.252701
vt 0.158360 0.125148
vt 0.340563 0.049855
vt 0.328056 0.168605
vt 0.333183 0.252048
vt 0.275892 0.161080
vt 0.679952 0.232058
vt 0.562648 0.231901
vt 0.621426 0.137650
vt 0.464009 0.258569
vt 0.400069 0.232886
vt 0.441375 0.130053
vt 0.369251 0.125314
vt 0.401240 0.014744
vt 0.397370 0.147407
vt 0.022049 0.036575
vt 0.085776 0.061605
vt 0.045188 0.164115
vt 0.116034 0.168605
vt 0.646632 0.146497
vt 0.763177 0.146653
vt 0.704779 0.240087
vt 0.301598 0.415721
vt 0.364716 0.406442
vt 0.171380 0.982591
vt 0.478663 0.586796
vt 0.013735 0.516919
vt 0.322224 0.924918
vt 0.427379 0.718288
vt 0.171621 0.865073
vt 0.367752 0.496246
vt 0.010729 0.427114
s 0
usemtl マテリアル.002
f 25/1/1 3/2/1 27/3/1
f 8/4/2 7/5/2 42/6/2
f 22/7/3 5/8/3 24/9/3
f 32/10/4 2/11/4 41/12/4
f 38/13/5 5/8/5 31/14/5
f 37/15/6 2/16/6 32/17/6
f 34/18/7 10/19/7 12/20/7
f 16/21/8 11/22/8 14/23/8
f 19/24/9 9/25/9 17/26/9
f 28/27/10 14/28/10 26/29/10
f 40/30/11 14/28/11 33/31/11
f 39/32/12 13/33/12 34/34/12
f 10/35/13 15/36/13 9/25/13
f 23/37/14 17/38/14 21/39/14
f 33/40/15 11/22/15 9/41/15
f 10/19/16 35/42/16 18/43/16
f 12/20/17 20/44/17 11/22/17
f 2/45/18 21/39/18 1/46/18
f 19/47/19 37/15/19 35/48/19
f 20/49/20 38/13/20 36/50/20
f 18/51/21 24/9/21 20/49/21
f 4/52/22 39/32/22 30/53/22
f 7/54/23 40/30/23 29/55/23
f 8/56/24 26/29/24 7/54/24
f 13/57/25 27/3/25 15/58/25
f 3/59/26 40/30/26 27/60/26
f 8/56/27 39/32/27 28/27/27
f 17/61/28 38/13/28 21/62/28
f 18/51/29 37/15/29 22/7/29
f 39/32/30 16/63/30 28/27/30
f 40/30/31 15/64/31 27/60/31
f 37/15/32 6/65/32 22/7/32
f 38/13/33 1/66/33 21/62/33
f 6/67/4 32/10/4 41/68/4
f 7/5/34 29/69/34 42/70/34
f 5/71/35 6/67/35 41/72/35
f 2/73/36 1/74/36 41/75/36
f 1/76/37 31/77/37 41/78/37
f 31/77/37 5/71/37 41/79/37
f 29/69/38 3/80/38 42/81/38
f 4/82/39 30/83/39 42/84/39
f 30/83/40 8/4/40 42/85/40
f 3/86/41 4/87/41 42/88/41
f 11/22/42 36/89/42 17/90/42
f 25/1/1 4/91/1 3/2/1
f 22/7/3 6/65/3 5/8/3
f 38/13/43 24/9/43 5/8/43
f 37/15/44 23/92/44 2/16/44
f 12/20/7 16/21/7 34/18/7
f 34/18/7 13/93/7 10/19/7
f 16/21/8 12/20/8 11/22/8
f 19/24/9 10/35/9 9/25/9
f 28/27/10 16/63/10 14/28/10
f 40/30/45 26/29/45 14/28/45
f 39/32/46 25/94/46 13/33/46
f 10/35/13 13/95/13 15/36/13
f 23/37/14 19/96/14 17/38/14
f 9/41/15 15/97/15 33/40/15
f 33/40/15 14/23/15 11/22/15
f 18/43/16 12/20/16 10/19/16
f 10/19/16 19/98/16 35/42/16
f 12/20/17 18/43/17 20/44/17
f 2/45/18 23/37/18 21/39/18
f 19/47/47 23/92/47 37/15/47
f 20/49/48 24/9/48 38/13/48
f 18/51/21 22/7/21 24/9/21
f 4/52/49 25/94/49 39/32/49
f 7/54/50 26/29/50 40/30/50
f 8/56/24 28/27/24 26/29/24
f 13/57/25 25/1/25 27/3/25
f 3/59/51 29/55/51 40/30/51
f 8/56/52 30/53/52 39/32/52
f 17/61/20 36/50/20 38/13/20
f 18/51/19 35/48/19 37/15/19
f 39/32/12 34/34/12 16/63/12
f 40/30/11 33/31/11 15/64/11
f 37/15/6 32/17/6 6/65/6
f 38/13/5 31/14/5 1/66/5
f 17/90/42 9/41/42 11/22/42
f 11/22/42 20/44/42 36/89/42
o 立方体.001
v -2.467412 0.686853 1.395236
v -2.467412 1.220984 1.395236
v -2.465336 0.688583 -1.459769
v -2.465336 1.219254 -1.459769
v -1.933280 0.686853 1.395236
v -1.933280 1.220984 1.395236
v -1.933280 0.686853 -1.470906
v -1.933280 1.220984 -1.470906
v -2.354716 0.799203 -0.035979
v -2.354716 1.108634 -0.035979
v -2.045284 0.799203 -0.035979
v -2.045284 1.108634 -0.035979
v -2.465336 1.219254 -1.080511
v -1.934664 0.688583 -1.080511
v -2.465336 0.688583 -1.080511
v -1.934664 1.219254 -1.080511
v -2.465336 0.688583 1.008554
v -1.934664 1.219254 1.008554
v -2.465336 1.219254 1.008554
v -1.934664 0.688583 1.008554
v -2.701190 0.688583 1.169599
v -1.698810 1.219254 1.169599
v -2.701190 1.219254 1.169599
v -1.698810 0.688583 1.169599
v -2.701190 1.219254 -1.241556
v -1.698810 0.688583 -1.241556
v -2.701190 0.688583 -1.241556
v -1.698810 1.219254 -1.241556
v -2.200346 0.686853 -1.470906
v -2.200346 1.220984 -1.470906
v -2.200346 0.686853 1.395236
v -2.200346 1.220984 1.395236
v -2.200000 0.688583 -1.080511
v -2.200000 1.219254 -1.080511
v -2.200000 1.219254 1.008554
v -2.200000 0.688583 1.008554
v -2.200000 1.587797 1.169599
v -2.200000 0.320040 1.169599
v -2.200000 1.587797 -1.241556
v -2.200000 0.320040 -1.241556
v -2.200346 0.953918 4.043751
v -2.201547 0.953918 -4.091307
vn -0.6791 -0.0000 -0.7340
vn 0.9948 -0.0000 -0.1018
vn 0.6934 -0.0000 0.7205
vn -0.0000 0.9950 0.1003
vn -0.0000 -0.5239 0.8518
vn -0.0000 0.5239 0.8518
vn -0.0000 0.9944 0.1053
vn 0.9944 -0.0000 0.1053
vn -0.9944 -0.0000 -0.1053
vn 0.5639 -0.0000 0.8258
vn -0.0000 -0.4004 0.9163
vn -0.0000 0.4004 0.9163
vn -0.9944 -0.0000 0.1053
vn -0.5639 -0.0000 -0.8258
vn -0.0000 -0.9944 0.1053
vn -0.0000 0.9944 -0.1053
vn 0.9944 -0.0000 -0.1053
vn -0.6945 -0.0000 0.7195
vn -0.0000 0.4004 -0.9163
vn -0.0000 -0.4004 -0.9163
vn 0.5639 -0.0000 -0.8258
vn -0.0391 0.5298 -0.8472
vn -0.0000 -0.5302 -0.8479
vn 0.6993 -0.0000 -0.7149
vn -0.5639 -0.0000 0.8258
vn -0.4989 -0.6785 -0.5392
vn 0.5081 0.6910 -0.5142
vn -0.4475 -0.6085 -0.6553
vn 0.4475 0.6085 -0.6553
vn 0.4475 0.6085 0.6553
vn -0.4475 -0.6085 0.6553
vn 0.5059 0.6879 0.5204
vn -0.5063 -0.6885 0.5193
vn -0.0000 -0.9948 -0.1014
vn 0.9950 -0.0000 0.1003
vn -0.9950 -0.0000 0.1003
vn -0.0000 -0.9950 0.1003
vn -0.0108 -0.9948 -0.1014
vn -0.0108 0.9948 -0.1014
vn -0.0000 0.9948 -0.1014
vn -0.9950 -0.0000 -0.0997
vn -0.0000 -0.9944 -0.1053
vn 0.5059 -0.6879 0.5204
vn -0.5063 0.6885 0.5193
vn 0.4475 -0.6085 0.6553
vn -0.4475 0.6085 0.6553
vn -0.4475 0.6085 -0.6553
vn 0.4475 -0.6085 -0.6553
vn -0.4989 0.6785 -0.5392
vn 0.5081 -0.6910 -0.5142
vn -0.0391 -0.5298 -0.8472
vn -0.0000 0.5302 -0.8479
vt 0.300769 0.930437
vt 0.184154 0.982435
vt 0.184224 0.930281
vt 0.167913 0.269043
vt 0.281491 0.268380
vt 0.225232 0.359611
vt 0.665202 0.671003
vt 0.746845 0.634861
vt 0.724787 0.675653
vt 0.584418 0.123528
vt 0.523631 0.159338
vt 0.526825 0.025766
vt 0.811020 0.673316
vt 0.813731 0.615699
vt 0.570051 0.687455
vt 0.498241 0.663244
vt 0.559027 0.627434
vt 0.117477 0.632659
vt 0.079987 0.595198
vt 0.180860 0.597332
vt 0.171556 0.650793
vt 0.278836 0.576062
vt 0.283996 0.641837
vt 0.183753 0.661948
vt 0.091451 0.699760
vt 0.067208 0.661792
vt 0.510288 0.810250
vt 0.594542 0.768790
vt 0.569904 0.814898
vt 0.665056 0.798427
vt 0.654877 0.744196
vt 0.424049 0.812569
vt 0.364897 0.768873
vt 0.428023 0.759613
vt 0.159408 0.699851
vt 0.067106 0.737664
vt 0.291244 0.815034
vt 0.174629 0.866870
vt 0.174699 0.814878
vt 0.344330 0.617243
vt 0.379710 0.578169
vt 0.115374 0.556136
vt 0.175713 0.531556
vt 0.288132 0.522601
vt 0.291693 0.763308
vt 0.174388 0.763151
vt 0.516188 0.737661
vt 0.580218 0.741683
vt 0.752976 0.708148
vt 0.807057 0.726268
vt 0.640557 0.717103
vt 0.357586 0.845168
vt 0.421313 0.870199
vt 0.601804 0.850412
vt 0.676101 0.858449
vt 0.488225 0.851074
vt 0.300839 0.878445
vt 0.184294 0.878289
vt 0.736778 0.823338
vt 0.780302 0.774051
vt 0.870175 0.716989
vt 0.926897 0.683980
vt 0.482103 0.777746
vt 0.718914 0.748199
vt 0.633314 0.635514
vt 0.877671 0.641382
vt 0.658705 0.131607
vt 0.597413 0.004054
vt 0.355788 0.276417
vt 0.343281 0.395167
vt 0.772236 0.130954
vt 0.714945 0.039986
vt 0.836615 0.243777
vt 0.719310 0.243620
vt 0.778089 0.149369
vt 0.903062 0.137476
vt 0.839122 0.111792
vt 0.880428 0.008959
vt 0.808304 0.004220
vt 0.416465 0.241306
vt 0.412594 0.373970
vt 0.037274 0.263137
vt 0.101001 0.288168
vt 0.060413 0.390677
vt 0.131259 0.395167
vt 0.797435 0.148451
vt 0.913980 0.148607
vt 0.855583 0.242040
vt 0.342214 0.540721
vt 0.405331 0.531442
vt 0.300699 0.982591
vt 0.454826 0.711796
vt 0.054351 0.641919
vt 0.308152 0.801871
vt 0.183651 0.737820
vt 0.291175 0.867026
vt 0.408367 0.621246
vt 0.051345 0.552114
s 0
usemtl マテリアル.001
f 67/99/53 45/100/53 69/101/53
f 50/102/54 49/103/54 84/104/54
f 64/105/55 47/106/55 66/107/55
f 74/108/56 44/109/56 83/110/56
f 80/111/57 47/106/57 73/112/57
f 79/113/58 44/114/58 74/115/58
f 76/116/59 52/117/59 54/118/59
f 58/119/60 53/120/60 56/121/60
f 61/122/61 51/123/61 59/124/61
f 70/125/62 56/126/62 68/127/62
f 82/128/63 56/126/63 75/129/63
f 81/130/64 55/131/64 76/132/64
f 52/133/65 57/134/65 51/123/65
f 65/135/66 59/136/66 63/137/66
f 75/138/67 53/120/67 51/139/67
f 52/117/68 77/140/68 60/141/68
f 54/118/69 62/142/69 53/120/69
f 44/143/70 63/137/70 43/144/70
f 61/145/71 79/113/71 77/146/71
f 62/147/72 80/111/72 78/148/72
f 60/149/73 66/107/73 62/147/73
f 46/150/74 81/130/74 72/151/74
f 49/152/75 82/128/75 71/153/75
f 50/154/76 68/127/76 49/152/76
f 55/155/77 69/101/77 57/156/77
f 45/157/78 82/128/78 69/158/78
f 50/154/79 81/130/79 70/125/79
f 59/159/80 80/111/80 63/160/80
f 60/149/81 79/113/81 64/105/81
f 81/130/82 58/161/82 70/125/82
f 82/128/83 57/162/83 69/158/83
f 79/113/84 48/163/84 64/105/84
f 80/111/85 43/164/85 63/160/85
f 48/165/56 74/108/56 83/166/56
f 49/103/86 71/167/86 84/168/86
f 47/169/87 48/165/87 83/170/87
f 44/171/88 43/172/88 83/173/88
f 43/174/89 73/175/89 83/176/89
f 73/175/89 47/169/89 83/177/89
f 71/167/90 45/178/90 84/179/90
f 46/180/91 72/181/91 84/182/91
f 72/181/92 50/102/92 84/183/92
f 45/184/93 46/185/93 84/186/93
f 53/120/94 78/187/94 59/188/94
f 67/99/53 46/189/53 45/100/53
f 64/105/55 48/163/55 47/106/55
f 80/111/95 66/107/95 47/106/95
f 79/113/96 65/190/96 44/114/96
f 54/118/59 58/119/59 76/116/59
f 76/116/59 55/191/59 52/117/59
f 58/119/60 54/118/60 53/120/60
f 61/122/61 52/133/61 51/123/61
f 70/125/62 58/161/62 56/126/62
f 82/128/97 68/127/97 56/126/97
f 81/130/98 67/192/98 55/131/98
f 52/133/65 55/193/65 57/134/65
f 65/135/66 61/194/66 59/136/66
f 51/139/67 57/195/67 75/138/67
f 75/138/67 56/121/67 53/120/67
f 60/141/68 54/118/68 52/117/68
f 52/117/68 61/196/68 77/140/68
f 54/118/69 60/141/69 62/142/69
f 44/143/70 65/135/70 63/137/70
f 61/145/99 65/190/99 79/113/99
f 62/147/100 66/107/100 80/111/100
f 60/149/73 64/105/73 66/107/73
f 46/150/101 67/192/101 81/130/101
f 49/152/102 68/127/102 82/128/102
f 50/154/76 70/125/76 68/127/76
f 55/155/77 67/99/77 69/101/77
f 45/157/103 71/153/103 82/128/103
f 50/154/104 72/151/104 81/130/104
f 59/159/72 78/148/72 80/111/72
f 60/149/71 77/146/71 79/113/71
f 81/130/64 76/132/64 58/161/64
f 82/128/63 75/129/63 57/162/63
f 79/113/58 74/115/58 48/163/58
f 80/111/57 73/112/57 43/164/57
f 59/188/94 51/139/94 53/120/94
f 53/120/94 62/142/94 78/187/94
